<?xml version="1.0" standalone="no"?>
<!DOCTYPE svg PUBLIC "-//W3C//DTD SVG 20010904//EN"
 "http://www.w3.org/TR/2001/REC-SVG-20010904/DTD/svg10.dtd">
<svg version="1.0" xmlns="http://www.w3.org/2000/svg"
 width="2446.000000pt" height="1686.000000pt" viewBox="0 0 2446.000000 1686.000000"
 preserveAspectRatio="xMidYMid meet">

<g transform="translate(0.000000,1686.000000) scale(0.100000,-0.100000)"
fill="#000000" stroke="none">
<path d="M12078 15563 l-58 -4 0 -80 c0 -209 -50 -493 -120 -675 -88 -231
-253 -410 -428 -464 -210 -65 -464 29 -639 236 -37 44 -93 107 -125 142 -127
137 -196 253 -247 412 -19 58 -35 106 -36 108 -2 2 -399 -216 -441 -243 -19
-12 -20 -19 -13 -72 5 -32 18 -94 30 -138 44 -164 35 -487 -18 -645 -31 -92
-113 -258 -159 -323 -19 -26 -32 -52 -30 -56 7 -11 -19 -33 -69 -61 -140 -78
-307 -84 -500 -18 -49 17 -94 34 -100 38 -5 4 -34 15 -63 25 -85 27 -152 78
-370 280 -35 33 -96 96 -135 140 -39 44 -74 81 -78 83 -8 4 -228 -170 -341
-271 -45 -39 -97 -86 -116 -102 l-35 -31 68 -84 c430 -532 497 -1104 156
-1334 -101 -69 -199 -98 -353 -104 -185 -7 -357 24 -563 103 -71 27 -243 110
-303 147 -18 11 -34 19 -36 17 -5 -6 -303 -504 -316 -529 -10 -18 -7 -23 21
-38 17 -9 77 -47 132 -84 56 -37 108 -68 115 -68 15 0 242 -209 242 -222 0 -5
27 -42 59 -83 278 -350 264 -711 -36 -918 -116 -80 -236 -126 -403 -153 -171
-28 -287 -30 -486 -8 -80 9 -147 14 -150 11 -3 -3 -14 -57 -24 -119 -10 -62
-28 -174 -40 -248 -11 -74 -25 -153 -30 -175 -18 -78 -16 -82 48 -95 31 -6
109 -27 172 -46 63 -19 131 -39 150 -44 112 -29 313 -151 443 -270 67 -61 146
-175 178 -257 19 -48 23 -77 23 -173 0 -109 -1 -119 -33 -193 -20 -46 -57
-105 -90 -145 -59 -70 -223 -219 -279 -254 -76 -47 -399 -159 -560 -194 -63
-13 -118 -27 -123 -29 -5 -3 -6 -27 -3 -53 8 -61 63 -392 70 -414 5 -16 23
-18 197 -18 105 0 245 7 312 14 285 35 405 48 660 71 149 14 308 30 355 35 47
5 128 10 180 10 52 1 113 5 135 9 40 8 40 8 14 19 -28 11 -38 38 -79 217 -171
738 -93 1679 204 2468 138 366 342 751 560 1059 811 1145 2071 1862 3456 1967
258 20 380 23 570 12 461 -27 796 -86 1190 -208 1745 -541 3025 -2073 3249
-3888 69 -552 39 -1094 -85 -1568 -14 -55 -23 -101 -20 -104 6 -6 -20 -4 481
-49 215 -19 444 -41 510 -49 85 -11 222 -15 472 -15 326 0 352 1 356 18 26 92
82 447 73 461 -3 5 -23 12 -43 16 -63 11 -125 36 -183 70 -30 18 -80 41 -110
50 -364 112 -637 321 -731 558 -54 137 -35 298 53 444 71 119 218 251 368 329
l55 29 -325 5 -324 5 -23 34 c-13 19 -23 45 -23 58 0 36 25 78 55 91 33 15
737 17 764 2 22 -12 53 -84 45 -105 -8 -20 -11 -20 98 16 51 16 125 37 163 45
105 21 157 43 151 62 -2 10 -10 67 -17 127 -6 61 -20 143 -30 184 -11 41 -19
86 -19 100 0 26 -35 180 -43 187 -2 2 -57 -6 -123 -17 -174 -30 -447 -30 -603
0 -266 52 -447 158 -546 321 -18 30 -39 75 -46 100 -7 25 -16 49 -21 55 -14
16 -9 163 8 218 90 300 279 531 617 753 173 113 158 92 118 166 -109 203 -279
478 -295 478 -6 0 -24 -9 -41 -21 -72 -49 -290 -149 -430 -197 -184 -64 -301
-78 -482 -58 -158 18 -238 44 -313 101 -202 156 -259 370 -184 700 26 114 54
188 112 290 94 168 167 277 244 368 l49 57 -56 52 c-84 76 -322 272 -386 318
l-56 39 -66 -77 c-281 -333 -636 -542 -920 -542 -241 0 -394 113 -508 375 -32
73 -64 318 -54 419 20 208 67 448 110 549 19 47 20 46 -12 59 -153 61 -566
218 -568 216 -2 -2 -19 -46 -39 -98 -157 -406 -417 -716 -682 -812 -79 -29
-219 -36 -300 -15 -110 28 -227 110 -308 216 -157 203 -247 499 -265 866 l-6
130 -260 1 c-143 0 -286 -1 -317 -3z m401 -778 c86 -22 180 -75 249 -140 61
-56 137 -154 127 -163 -2 -2 -40 24 -84 59 -170 137 -271 179 -425 181 -69 0
-120 -5 -161 -17 -111 -32 -287 -130 -367 -204 -15 -13 -31 -22 -34 -18 -12
11 37 76 99 133 90 81 214 148 322 173 62 14 214 12 274 -4z m-5 -140 c27 -8
77 -31 111 -50 67 -37 185 -146 185 -171 0 -18 -4 -15 -82 43 -31 24 -59 43
-63 43 -4 0 -20 9 -35 20 -16 11 -64 32 -107 46 -69 23 -89 25 -173 21 -100
-6 -175 -27 -253 -70 -70 -40 -125 -75 -132 -87 -8 -13 -35 -13 -35 0 0 5 27
36 60 69 71 69 182 129 273 147 72 15 181 10 251 -11z m29 -144 c59 -28 167
-120 167 -141 0 -16 -6 -13 -62 30 -174 132 -365 130 -557 -4 -29 -21 -56 -35
-59 -32 -11 12 81 95 138 125 124 66 264 74 373 22z m-28 -125 c56 -34 85 -61
85 -77 0 -6 -15 0 -32 13 -49 37 -77 50 -135 64 -75 17 -162 -4 -226 -55 -22
-18 -34 -7 -16 15 25 31 92 66 138 74 70 11 131 0 186 -34z m-35 -91 c28 -25
18 -30 -21 -10 -32 17 -93 17 -144 0 -17 -6 -16 -3 5 14 21 18 35 21 82 18 38
-2 64 -10 78 -22z m-49 -41 c11 -14 11 -18 -3 -28 -15 -11 -15 -17 1 -82 10
-38 26 -103 35 -144 10 -41 23 -97 31 -125 8 -27 16 -62 20 -77 4 -23 11 -28
35 -28 38 0 40 -20 3 -21 -29 -1 -269 -1 -335 0 -45 1 -52 21 -8 21 29 0 30 2
60 103 17 56 39 127 49 157 52 159 55 171 43 190 -6 11 -9 26 -6 35 8 20 58
19 75 -1z m3401 -615 c19 -10 20 -17 14 -92 -10 -121 -28 -237 -38 -237 -4 0
-5 -16 -2 -35 5 -30 3 -35 -15 -35 -12 0 -21 -7 -21 -15 0 -8 6 -15 14 -15 8
0 21 -8 28 -18 18 -26 40 -37 37 -21 -3 27 1 39 15 39 8 0 15 -14 18 -36 4
-38 -7 -53 -25 -35 -29 29 -68 1 -49 -36 13 -23 -9 -48 -27 -30 -8 8 -11 5
-11 -12 0 -17 4 -21 18 -17 20 7 36 -3 45 -26 4 -12 2 -15 -9 -11 -8 3 -14 -1
-14 -10 0 -8 8 -17 18 -19 14 -4 23 -29 41 -114 12 -60 25 -119 27 -130 5 -19
0 -23 -45 -33 -92 -20 -153 6 -146 62 3 18 10 85 16 150 7 73 17 123 25 132 8
7 14 20 14 27 0 10 -3 9 -11 -2 -8 -12 -9 -10 -7 10 2 16 11 26 27 30 l24 6
-26 17 c-29 19 -34 46 -15 76 9 15 8 22 -6 36 -12 13 -14 21 -7 28 16 16 13
37 -4 37 -19 0 -20 28 0 32 10 2 12 7 5 18 -8 12 -12 13 -19 2 -5 -9 -10 -2
-14 25 -3 21 -17 84 -30 141 l-24 104 21 8 c31 13 134 12 158 -1z m-6555 -85
c30 -12 123 -117 123 -139 0 -6 11 -19 25 -29 14 -10 25 -25 25 -32 0 -7 11
-25 25 -40 14 -15 25 -35 25 -45 0 -10 5 -21 10 -24 16 -10 12 -70 -9 -118
-23 -53 -59 -91 -132 -142 -30 -20 -58 -43 -62 -51 -4 -8 -14 -14 -21 -14 -8
0 -19 -7 -27 -16 -11 -13 -11 -15 2 -14 52 8 81 -25 58 -66 -20 -38 -6 -36 36
6 22 21 43 39 47 40 9 0 116 80 166 122 50 43 102 34 102 -18 0 -22 -49 -65
-250 -217 -154 -117 -196 -149 -273 -209 -75 -60 -113 -72 -137 -43 -11 13
-10 22 3 50 9 19 21 35 27 35 6 0 37 21 69 48 32 26 85 67 119 92 68 50 77 64
32 47 -42 -16 -66 0 -62 42 1 17 0 31 -3 31 -6 0 -63 -42 -153 -112 -33 -27
-68 -48 -78 -48 -10 0 -32 -5 -50 -12 -50 -18 -106 5 -155 61 -21 25 -39 52
-39 59 0 6 -4 12 -8 12 -5 0 -35 39 -66 88 -64 96 -77 144 -56 207 14 42 84
125 106 125 7 0 17 6 21 14 10 17 181 146 194 146 5 0 9 4 9 9 0 5 15 19 33
30 19 11 47 33 62 47 16 15 61 44 99 65 74 40 94 41 163 13z m6218 -309 c66
-13 112 -24 103 -24 -15 -1 -28 -21 -14 -21 2 0 11 -3 20 -6 11 -4 16 -1 16
10 0 9 8 16 20 16 13 0 18 -5 14 -15 -7 -18 17 -20 33 -4 16 16 33 2 29 -24
-3 -12 -5 -25 -5 -29 -2 -18 -31 -6 -31 12 0 14 -7 20 -22 20 -16 0 -19 -3
-11 -11 6 -6 9 -18 6 -28 -3 -14 -28 -21 -126 -34 -208 -30 -192 -30 -208 0
-15 27 -19 126 -7 155 5 13 15 16 35 12 15 -3 82 -16 148 -29z m749 -10 c19
-29 22 -134 4 -157 -12 -14 -21 -14 -83 -3 -149 26 -185 36 -185 51 0 8 -9 14
-21 14 -11 0 -17 -4 -14 -10 3 -5 0 -10 -8 -10 -16 0 -31 27 -28 48 1 6 -3 12
-9 12 -5 0 -10 5 -10 11 0 5 5 7 10 4 6 -3 10 0 10 7 0 10 36 19 123 32 67 10
129 19 137 21 42 8 59 3 74 -20z m-546 -177 c-5 -24 -10 -60 -10 -80 0 -27 -4
-35 -14 -31 -9 3 -14 -2 -14 -13 0 -11 -7 -37 -14 -59 -8 -22 -12 -44 -9 -48
8 -13 14 -2 28 55 12 49 13 51 14 17 2 -77 -21 -152 -73 -231 -27 -43 -54 -78
-59 -78 -12 0 -347 320 -347 331 0 4 44 37 98 73 92 60 104 65 183 76 46 6
107 15 134 20 96 15 94 16 83 -32z m1789 -2391 c8 -12 142 -125 221 -186 l42
-33 -28 -26 c-16 -15 -41 -47 -57 -71 l-29 -43 -46 49 c-25 27 -73 79 -106
116 -35 38 -67 66 -75 63 -8 -2 -70 -10 -139 -17 -131 -12 -160 -20 -160 -44
0 -8 -5 -37 -11 -65 -8 -38 -15 -50 -29 -50 -13 0 -23 -15 -36 -49 -17 -48
-42 -62 -30 -17 3 11 13 79 21 151 22 179 20 175 60 168 19 -3 79 6 141 20
216 51 248 55 261 34z m517 -208 c3 -17 6 -49 6 -70 l0 -39 170 0 171 0 -3
-152 -3 -153 -27 1 c-16 0 -176 1 -358 2 l-330 2 0 48 c1 167 118 329 275 378
70 22 92 18 99 -17z m-10699 -220 c253 -51 463 -95 468 -99 8 -7 -31 -190 -44
-204 -5 -6 -37 -4 -81 5 -40 7 -77 14 -83 14 -15 0 -46 -155 -31 -161 6 -2 42
-10 79 -18 37 -7 71 -16 74 -20 7 -6 -37 -215 -46 -220 -3 -2 -49 5 -101 16
-52 11 -268 55 -479 97 -212 43 -386 82 -388 88 -2 5 26 141 62 301 36 161 65
295 65 298 0 4 10 4 23 1 12 -3 229 -47 482 -98z m9878 -11 c63 -51 109 -81
125 -82 48 -2 33 -24 -57 -85 -50 -34 -93 -61 -96 -61 -10 0 -156 123 -153
129 2 3 18 45 37 94 18 48 36 87 39 87 3 0 50 -37 105 -82z"/>
<path d="M12347 14153 c-12 -12 -7 -33 8 -33 17 0 19 9 7 28 -5 7 -11 9 -15 5z"/>
<path d="M12337 14073 c-14 -13 -7 -33 11 -33 26 0 34 11 21 27 -13 14 -22 16
-32 6z"/>
<path d="M12305 14020 c-3 -5 -2 -10 4 -10 5 0 13 5 16 10 3 6 2 10 -4 10 -5
0 -13 -4 -16 -10z"/>
<path d="M12376 14022 c-3 -6 -1 -14 5 -17 14 -9 20 -2 10 14 -6 8 -11 9 -15
3z"/>
<path d="M12315 13984 c-19 -14 -19 -15 9 -40 25 -24 30 -25 52 -14 30 16 30
24 2 50 -26 24 -36 24 -63 4z"/>
<path d="M12280 13945 c0 -6 -7 -31 -15 -57 -8 -27 -11 -48 -7 -48 4 1 23 14
42 30 l34 30 -27 27 c-15 15 -27 23 -27 18z"/>
<path d="M12387 13912 c-16 -17 -15 -20 20 -53 20 -19 33 -26 30 -17 -3 9 -9
33 -13 52 -7 41 -14 44 -37 18z"/>
<path d="M12286 13834 c-83 -67 -78 -74 54 -74 83 0 110 3 110 13 0 13 -90
107 -102 107 -3 0 -31 -20 -62 -46z"/>
<path d="M15643 13609 c-12 -12 -6 -39 11 -51 17 -11 23 -1 18 32 -5 32 -11
37 -29 19z"/>
<path d="M15692 13588 c2 -22 9 -34 21 -36 14 -3 17 4 17 32 0 30 -4 36 -21
36 -17 0 -20 -5 -17 -32z"/>
<path d="M15759 13615 c-1 -3 -1 -17 -2 -32 -1 -41 27 -37 31 5 2 24 -1 32
-12 32 -9 0 -16 -2 -17 -5z"/>
<path d="M15656 13522 c-8 -14 5 -52 18 -52 8 0 11 11 8 30 -4 29 -16 39 -26
22z"/>
<path d="M15704 13515 c-8 -19 2 -45 16 -45 5 0 10 14 10 30 0 31 -16 41 -26
15z"/>
<path d="M15754 13504 c3 -9 6 -20 6 -25 0 -5 5 -9 10 -9 6 0 10 11 10 25 0
16 -6 25 -16 25 -11 0 -14 -5 -10 -16z"/>
<path d="M15670 13421 c0 -11 5 -23 10 -26 6 -4 10 5 10 19 0 14 -4 26 -10 26
-5 0 -10 -9 -10 -19z"/>
<path d="M15710 13415 c0 -14 4 -25 9 -25 12 0 23 29 15 41 -10 18 -24 9 -24
-16z"/>
<path d="M15757 13434 c-11 -11 -8 -44 3 -44 15 0 24 30 13 41 -5 5 -12 6 -16
3z"/>
<path d="M15720 13339 c0 -11 5 -17 10 -14 6 3 10 13 10 21 0 8 -4 14 -10 14
-5 0 -10 -9 -10 -21z"/>
<path d="M15750 13345 c0 -8 5 -15 10 -15 6 0 10 7 10 15 0 8 -4 15 -10 15 -5
0 -10 -7 -10 -15z"/>
<path d="M15720 13281 c0 -12 6 -21 15 -21 8 0 15 4 15 9 0 5 -7 14 -15 21
-13 10 -15 9 -15 -9z"/>
<path d="M15707 12996 c-4 -10 -5 -21 -2 -24 9 -9 17 6 13 25 -3 17 -4 17 -11
-1z"/>
<path d="M15735 13000 c-7 -12 2 -30 16 -30 12 0 12 27 0 35 -5 3 -12 1 -16
-5z"/>
<path d="M15700 12915 c0 -14 5 -25 10 -25 6 0 10 11 10 25 0 14 -4 25 -10 25
-5 0 -10 -11 -10 -25z"/>
<path d="M15740 12915 c0 -16 6 -25 16 -25 11 0 14 5 10 16 -3 9 -6 20 -6 25
0 5 -4 9 -10 9 -5 0 -10 -11 -10 -25z"/>
<path d="M15780 12915 c0 -16 6 -25 16 -25 11 0 14 5 10 16 -3 9 -6 20 -6 25
0 5 -4 9 -10 9 -5 0 -10 -11 -10 -25z"/>
<path d="M15692 12835 c2 -14 8 -26 13 -26 6 0 11 12 13 26 2 18 -1 25 -13 25
-12 0 -15 -7 -13 -25z"/>
<path d="M15740 12836 c0 -26 14 -41 29 -32 13 8 0 56 -15 56 -8 0 -14 -10
-14 -24z"/>
<path d="M15792 12834 c2 -15 9 -29 16 -32 10 -3 13 4 10 24 -2 15 -9 29 -16
32 -10 3 -13 -4 -10 -24z"/>
<path d="M15684 12766 c-9 -24 0 -51 19 -54 15 -3 18 2 15 29 -3 35 -24 51
-34 25z"/>
<path d="M15747 12774 c-10 -10 -9 -62 1 -68 16 -10 33 12 30 39 -3 28 -18 42
-31 29z"/>
<path d="M15800 12750 c0 -32 10 -43 29 -31 16 10 6 47 -14 55 -11 4 -15 -2
-15 -24z"/>
<path d="M9175 12860 c-3 -5 -1 -10 4 -10 6 0 11 5 11 10 0 6 -2 10 -4 10 -3
0 -8 -4 -11 -10z"/>
<path d="M15297 13244 c-17 -17 -5 -34 23 -34 20 0 30 5 30 15 0 8 -4 15 -9
15 -5 0 -16 2 -23 5 -8 3 -17 2 -21 -1z"/>
<path d="M15382 13222 c2 -10 15 -18 32 -20 37 -5 31 19 -8 29 -22 6 -27 5
-24 -9z"/>
<path d="M15462 13209 c2 -7 14 -13 26 -14 29 -2 22 19 -7 23 -15 3 -22 -1
-19 -9z"/>
<path d="M15282 13173 c2 -12 14 -19 36 -21 27 -3 32 0 32 17 0 17 -6 21 -36
21 -28 0 -35 -3 -32 -17z"/>
<path d="M15384 13179 c-9 -15 6 -29 32 -29 14 0 24 6 24 14 0 15 -48 28 -56
15z"/>
<path d="M15470 13165 c0 -11 7 -15 23 -13 12 2 22 8 22 13 0 6 -10 11 -22 13
-16 2 -23 -2 -23 -13z"/>
<path d="M15545 13160 c3 -5 12 -10 20 -10 8 0 17 5 20 10 4 6 -5 10 -20 10
-15 0 -24 -4 -20 -10z"/>
<path d="M15488 13133 c-10 -3 -18 -9 -18 -14 0 -12 37 -12 45 0 7 12 -5 19
-27 14z"/>
<path d="M15545 13130 c-3 -5 3 -10 14 -10 12 0 21 5 21 10 0 6 -6 10 -14 10
-8 0 -18 -4 -21 -10z"/>
<path d="M15290 13110 c0 -21 33 -28 59 -11 21 13 4 31 -30 31 -22 0 -29 -5
-29 -20z"/>
<path d="M15383 13118 c2 -7 14 -13 27 -13 13 0 25 6 28 13 2 8 -7 12 -28 12
-21 0 -30 -4 -27 -12z"/>
<path d="M16130 13210 c0 -15 7 -20 28 -20 34 0 43 7 35 26 -3 8 -18 14 -34
14 -22 0 -29 -5 -29 -20z"/>
<path d="M16053 13213 c-24 -9 -13 -23 17 -23 20 0 30 5 30 15 0 15 -22 19
-47 8z"/>
<path d="M15965 13201 c-3 -5 -1 -12 4 -15 12 -8 41 3 41 15 0 12 -37 12 -45
0z"/>
<path d="M15900 13190 c0 -5 9 -10 20 -10 11 0 20 5 20 10 0 6 -9 10 -20 10
-11 0 -20 -4 -20 -10z"/>
<path d="M15900 13160 c0 -5 9 -10 21 -10 11 0 17 5 14 10 -3 6 -13 10 -21 10
-8 0 -14 -4 -14 -10z"/>
<path d="M15970 13155 c0 -11 7 -15 23 -13 12 2 22 8 22 13 0 6 -10 11 -22 13
-16 2 -23 -2 -23 -13z"/>
<path d="M16045 13161 c-7 -12 32 -34 45 -26 6 3 10 13 10 21 0 16 -45 20 -55
5z"/>
<path d="M16132 13153 c2 -12 14 -19 36 -21 27 -3 32 0 32 17 0 17 -6 21 -36
21 -28 0 -35 -3 -32 -17z"/>
<path d="M15976 13123 c-3 -3 -3 -10 0 -14 7 -12 44 -12 44 0 0 10 -36 21 -44
14z"/>
<path d="M16050 13105 c0 -9 9 -15 25 -15 16 0 25 6 25 15 0 9 -9 15 -25 15
-16 0 -25 -6 -25 -15z"/>
<path d="M16130 13100 c0 -6 12 -16 26 -22 20 -10 27 -9 34 2 5 8 6 18 4 22
-7 12 -64 10 -64 -2z"/>
<path d="M15455 13042 c-65 -16 -71 -19 -63 -28 8 -7 127 26 134 37 6 11 6 11
-71 -9z"/>
<path d="M15540 13033 c-8 -2 -24 -9 -35 -14 -11 -5 -32 -13 -47 -19 -16 -5
-28 -14 -28 -20 0 -15 4 -13 67 20 69 37 80 46 43 33z"/>
<path d="M15503 12982 c-23 -15 -43 -30 -43 -34 0 -16 18 -7 56 27 46 41 43
42 -13 7z"/>
<path d="M15555 12941 c-38 -58 -39 -61 -27 -61 11 0 64 89 60 101 -2 4 -16
-14 -33 -40z"/>
<path d="M15586 12924 c-27 -59 -31 -74 -18 -74 9 0 56 120 49 126 -3 3 -17
-20 -31 -52z"/>
<path d="M15515 12940 c-16 -16 -24 -30 -18 -30 10 0 34 24 47 48 12 20 2 14
-29 -18z"/>
<path d="M15353 12839 c-24 -22 -43 -43 -43 -47 0 -5 15 -23 34 -41 l34 -33
36 48 c50 65 47 115 -7 114 -7 0 -31 -19 -54 -41z"/>
<path d="M17819 10324 c-35 -22 -69 -74 -76 -118 -5 -34 -4 -36 23 -36 16 0
46 3 67 6 l37 7 0 78 c0 85 -5 91 -51 63z"/>
<path d="M6801 10163 c-8 -37 -16 -73 -18 -80 -4 -9 72 -33 106 -33 11 0 44
151 35 160 -5 4 -32 11 -60 15 l-50 6 -13 -68z"/>
<path d="M6986 10189 c-17 -56 -34 -145 -28 -150 12 -11 102 -27 107 -19 6 9
35 131 35 146 0 6 -13 14 -29 17 -16 3 -40 9 -55 13 -17 4 -27 2 -30 -7z"/>
<path d="M7147 10163 c-2 -4 -10 -35 -17 -68 -7 -33 -14 -65 -17 -71 -2 -7 11
-14 34 -18 21 -4 48 -10 59 -13 20 -4 24 2 40 71 11 47 14 80 8 85 -13 13
-101 25 -107 14z"/>
<path d="M7296 10063 c-9 -42 -13 -80 -9 -84 4 -4 31 -11 59 -14 l51 -7 12 58
c6 33 14 68 17 80 5 18 -1 22 -46 32 -28 7 -55 12 -59 12 -4 0 -15 -35 -25
-77z"/>
<path d="M6756 9952 c-7 -11 -38 -154 -34 -157 2 -1 27 -7 56 -12 39 -8 55 -7
58 1 11 31 32 140 29 147 -3 4 -21 10 -41 13 -19 4 -41 9 -49 12 -7 3 -16 1
-19 -4z"/>
<path d="M6912 9863 c-7 -32 -15 -67 -18 -79 -5 -18 1 -23 40 -33 72 -18 71
-18 90 65 9 42 14 79 12 81 -6 6 -76 22 -96 23 -11 0 -20 -17 -28 -57z"/>
<path d="M7071 9833 c-6 -32 -14 -68 -17 -80 -5 -18 0 -23 33 -32 73 -21 79
-17 92 47 6 31 14 67 17 78 5 20 0 23 -46 33 -28 6 -55 11 -59 11 -5 0 -14
-26 -20 -57z"/>
<path d="M7236 9796 c-25 -100 -24 -102 37 -114 28 -5 53 -9 55 -7 6 6 31 120
32 141 0 17 -8 23 -37 28 -21 4 -45 9 -54 12 -13 4 -20 -9 -33 -60z"/>
<path d="M12200 13504 c-666 -40 -1236 -187 -1796 -463 -1096 -540 -1922
-1487 -2304 -2640 -267 -807 -304 -1694 -99 -2397 19 -66 24 -73 51 -78 17 -3
37 -6 44 -6 20 0 17 17 -4 22 -13 4 -24 32 -45 124 -38 167 -74 405 -87 563
-13 171 -13 539 0 707 71 914 423 1784 1009 2493 132 159 370 402 524 534 655
563 1441 918 2288 1036 468 65 989 53 1449 -35 1572 -298 2863 -1422 3384
-2944 99 -290 167 -596 207 -930 33 -273 33 -731 0 -980 -25 -193 -58 -364
-96 -504 -33 -119 -33 -118 12 -114 l38 3 27 100 c94 344 142 824 119 1195
-53 851 -288 1578 -728 2254 -183 280 -347 481 -597 732 -245 245 -443 407
-717 587 -620 407 -1307 649 -2046 722 -155 15 -515 26 -633 19z"/>
<path d="M12035 13279 c-1001 -93 -1911 -506 -2621 -1191 -729 -704 -1175
-1615 -1296 -2643 -18 -149 -18 -764 0 -905 27 -215 85 -515 113 -579 l10 -24
137 6 c75 4 283 13 462 21 347 16 870 35 1755 63 1049 34 3026 18 4105 -32
655 -31 1344 -66 1580 -80 191 -11 247 -11 256 -2 29 32 103 359 135 602 33
248 33 698 1 965 -49 390 -139 751 -275 1095 -190 480 -497 966 -848 1340
-710 756 -1591 1209 -2619 1346 -178 23 -719 35 -895 18z m-582 -414 l2 -270
103 -3 102 -3 0 -45 0 -44 -167 2 -168 3 -3 305 c-1 168 0 311 3 318 3 9 22
12 65 10 l61 -3 2 -270z m594 44 c39 -15 43 -24 43 -116 0 -107 -7 -113 -143
-113 l-98 0 3 -52 3 -53 55 0 c54 0 54 0 55 30 0 30 0 30 63 33 l62 3 0 -51
c0 -84 -12 -90 -184 -90 -119 0 -147 3 -161 16 -13 14 -15 42 -13 197 l3 181
25 13 c31 16 247 18 287 2z m466 -8 c15 -12 17 -39 17 -206 l0 -192 -166 0
c-130 0 -168 3 -180 14 -10 10 -14 40 -14 105 0 125 3 128 137 128 l103 0 0
45 0 46 -57 -3 c-43 -2 -58 -7 -59 -18 -1 -8 -2 -21 -3 -28 -1 -9 -16 -12 -53
-10 l-53 3 -3 52 c-5 78 9 85 179 81 97 -2 141 -7 152 -17z m233 9 c6 -6 30
-6 69 0 133 22 155 7 155 -100 l0 -70 -65 0 -65 0 0 45 0 45 -45 0 -45 0 -2
-162 -3 -163 -62 -3 -63 -3 0 211 0 210 58 0 c32 0 62 -4 68 -10z m479 2 c121
5 154 3 167 -10 10 -10 13 -61 13 -205 l0 -192 -62 -3 -63 -3 0 166 0 165 -60
0 -60 0 0 -165 0 -165 -60 0 -60 0 0 211 0 211 63 -6 c34 -3 89 -5 122 -4z
m-831 -568 c9 -8 16 -18 16 -21 0 -4 -3 -3 -7 0 -3 4 -12 2 -18 -3 -9 -8 -14
-6 -19 5 -7 19 -26 20 -26 0 0 -8 7 -15 15 -15 8 0 15 -4 15 -10 0 -5 7 -7 15
-3 9 3 23 -1 33 -9 9 -8 25 -18 35 -21 20 -7 23 -26 5 -32 -35 -13 -177 -9
-198 5 -13 9 -13 12 2 20 9 6 24 17 32 25 8 8 19 15 25 15 14 0 14 17 1 25
-15 10 -12 23 8 28 34 9 51 7 66 -9z m-154 -18 c0 -20 -23 -55 -39 -61 -11 -3
-23 -15 -26 -25 -3 -11 -21 -25 -40 -31 -19 -7 -37 -19 -39 -26 -7 -16 -6 -16
37 2 41 17 87 20 87 5 0 -5 -9 -10 -21 -10 -38 0 -139 -62 -189 -117 -47 -51
-66 -94 -85 -185 -3 -16 -10 -28 -17 -28 -18 0 3 152 22 158 5 2 10 8 10 14 0
6 -13 7 -32 3 -27 -6 -31 -5 -21 6 9 9 10 16 2 26 -9 10 -7 13 10 13 18 0 20
4 15 28 -5 22 -4 25 6 15 10 -9 17 -10 27 -2 18 15 16 29 -3 29 -8 0 -12 5 -9
10 3 6 16 10 28 10 15 0 27 11 37 33 13 28 20 32 53 31 29 -1 37 2 37 17 0 32
30 52 71 46 31 -4 39 -1 50 19 11 21 29 33 29 20z m270 -17 c17 -30 6 -34 -14
-4 -9 14 -12 25 -7 25 6 0 15 -9 21 -21z m61 -19 c10 0 28 -14 41 -30 13 -18
25 -27 31 -21 5 5 17 3 28 -7 10 -9 15 -19 10 -22 -5 -3 -12 -15 -16 -28 -6
-21 -5 -22 14 -10 18 11 22 10 34 -6 8 -11 19 -16 26 -12 6 4 18 2 26 -4 18
-15 19 -31 3 -27 -7 1 -13 -5 -13 -13 0 -8 10 -16 23 -18 12 -2 22 -9 22 -17
0 -7 9 -15 20 -18 11 -3 20 -10 20 -16 0 -6 -9 -11 -20 -11 -21 0 -27 -15 -10
-25 6 -4 5 -12 -4 -21 -20 -20 -24 -18 -18 11 3 19 0 25 -13 25 -13 0 -15 -5
-9 -22 5 -13 8 -33 9 -45 0 -27 8 -29 25 -8 7 8 16 12 22 9 5 -3 15 -1 22 5
11 9 14 6 14 -14 0 -21 -5 -25 -29 -25 -20 0 -34 -8 -46 -26 l-17 -27 -18 72
c-18 74 -38 111 -92 169 -39 42 -122 85 -150 79 -19 -5 -20 -5 -3 6 51 32 53
35 40 55 -6 11 -9 30 -6 43 4 13 8 18 11 11 2 -6 12 -12 23 -12z m-2556 -177
c90 -54 165 -102 165 -107 0 -21 -56 -96 -68 -91 -8 3 -74 41 -148 85 -74 44
-136 80 -138 80 -3 0 -16 -20 -29 -45 l-26 -45 145 -86 c79 -47 144 -88 144
-91 0 -12 -55 -93 -64 -93 -7 0 -171 95 -333 192 l-32 19 30 50 c17 27 35 49
40 49 5 0 25 32 44 72 41 83 61 108 86 108 11 0 93 -44 184 -97z m2404 71 c32
-7 44 -27 14 -23 -10 1 -29 0 -43 -1 -19 -2 -15 -4 15 -10 99 -20 122 -49 42
-51 -39 -1 -40 -2 -12 -8 27 -6 26 -8 -20 -13 -27 -3 -55 -2 -61 3 -23 19 -21
-17 2 -44 23 -27 24 -27 21 -5 -2 21 1 23 48 21 68 -3 95 -11 95 -28 0 -8 15
-22 33 -31 22 -12 27 -19 17 -22 -8 -2 -23 -11 -32 -20 -16 -14 -18 -13 -18 1
0 18 -25 23 -34 8 -3 -5 -15 -7 -26 -4 -21 6 -25 -3 -11 -26 5 -8 16 -11 29
-7 17 6 19 3 15 -14 -6 -23 5 -26 21 -5 12 16 60 10 50 -7 -3 -5 -14 -6 -25
-3 -14 5 -17 2 -13 -8 3 -8 1 -18 -5 -22 -6 -3 -11 -12 -11 -18 0 -7 6 -4 14
5 14 20 28 14 19 -8 -3 -8 0 -14 7 -14 6 0 18 -7 26 -15 19 -19 10 -19 -44 0
-30 11 -48 12 -60 5 -15 -8 -15 -9 -1 -10 22 0 44 -26 29 -35 -5 -3 -10 -17
-10 -31 0 -21 -4 -24 -37 -24 -37 0 -37 0 -15 -16 12 -8 22 -25 22 -36 0 -11
7 -26 16 -33 14 -10 10 -14 -30 -25 -83 -23 -108 -73 -87 -175 9 -41 15 -32
11 18 -1 21 3 27 19 27 12 0 21 6 21 16 0 12 8 9 33 -10 36 -28 58 -32 87 -16
14 8 19 5 23 -11 9 -34 -19 -106 -69 -181 -57 -86 -105 -112 -189 -105 -70 6
-105 32 -155 116 -34 57 -42 82 -51 155 -10 80 -9 89 10 119 11 17 29 49 41
70 11 20 27 37 34 37 8 0 16 9 19 20 3 13 0 20 -9 20 -17 0 -18 22 -1 39 10
11 8 12 -10 6 -25 -7 -32 12 -11 33 16 16 2 28 -15 14 -10 -9 -17 -8 -25 0
-15 15 -16 32 -2 23 6 -3 10 1 10 9 0 13 44 52 63 55 4 1 7 3 7 6 0 6 -9 5
-38 -6 -30 -12 -42 -11 -42 1 0 6 7 10 15 10 27 0 16 52 -13 61 -7 3 6 20 34
43 36 31 57 40 95 44 34 3 49 9 49 19 0 11 -7 13 -30 8 -20 -4 -30 -3 -30 6 0
8 -14 10 -44 7 -35 -4 -43 -2 -39 8 5 13 20 19 126 45 53 13 55 20 8 21 -37 1
-39 5 -8 18 26 10 92 12 136 4z m158 -40 c-3 -3 -12 -4 -19 -1 -8 3 -5 6 6 6
11 1 17 -2 13 -5z m-460 -30 c-3 -3 -12 -4 -19 -1 -8 3 -5 6 6 6 11 1 17 -2
13 -5z m518 -14 c3 -5 2 -10 -4 -10 -5 0 -13 5 -16 10 -3 6 -2 10 4 10 5 0 13
-4 16 -10z m48 -46 c3 -4 -10 -15 -30 -25 -45 -23 -53 -18 -17 10 28 22 37 25
47 15z m-792 -86 c6 -12 6 -18 -1 -18 -5 0 -10 -7 -10 -15 0 -8 -4 -15 -9 -15
-5 0 -18 -3 -28 -7 -17 -7 -17 -6 0 11 19 19 13 41 -9 32 -17 -6 -18 6 -3 21
6 6 19 9 28 6 13 -5 14 -3 4 8 -7 7 -13 18 -13 24 1 10 24 -17 41 -47z m140
35 c12 -15 12 -16 -4 -10 -10 4 -23 7 -28 7 -5 0 -9 5 -9 10 0 16 26 12 41 -7z
m679 -13 c0 -5 -2 -10 -4 -10 -3 0 -8 5 -11 10 -3 6 -1 10 4 10 6 0 11 -4 11
-10z m-100 -34 c0 -3 -4 -8 -10 -11 -5 -3 -10 -1 -10 4 0 6 5 11 10 11 6 0 10
-2 10 -4z m-500 -16 c0 -5 -2 -10 -4 -10 -3 0 -8 5 -11 10 -3 6 -1 10 4 10 6
0 11 -4 11 -10z m564 -6 c9 -3 16 -10 16 -15 0 -4 -7 -6 -15 -2 -9 3 -22 -2
-30 -13 -7 -11 -17 -16 -21 -12 -4 5 1 17 11 28 21 23 18 22 39 14z m-628 -49
c8 -13 14 -32 11 -42 -3 -15 -6 -13 -15 10 -14 34 -36 43 -68 29 -28 -13 -30
-10 -8 12 23 24 61 20 80 -9z m-176 -24 c0 -17 -4 -33 -10 -36 -5 -3 -10 3
-10 15 0 17 -4 20 -20 15 -25 -8 -27 10 -2 24 30 18 42 12 42 -18z m975 19 c3
-5 2 -10 -4 -10 -5 0 -13 5 -16 10 -3 6 -2 10 4 10 5 0 13 -4 16 -10z m2568
-30 c16 -22 26 -44 23 -49 -4 -5 -94 -77 -201 -161 -125 -97 -193 -155 -188
-163 3 -7 27 -39 52 -71 l44 -59 -27 -24 c-15 -12 -31 -23 -35 -23 -10 0 -171
217 -170 228 0 9 451 360 464 361 6 0 23 -17 38 -39z m-2753 -4 c0 -3 -4 -8
-10 -11 -5 -3 -10 -1 -10 4 0 6 5 11 10 11 6 0 10 -2 10 -4z m-2965 -49 c90
-54 93 -69 31 -166 -25 -39 -46 -75 -46 -79 0 -4 20 -19 44 -34 49 -29 50 -29
89 34 16 26 16 27 -13 48 l-30 21 27 42 c15 23 29 44 30 47 7 8 95 -45 105
-63 11 -22 -4 -54 -86 -180 -30 -47 -64 -88 -75 -92 -15 -5 -62 18 -178 87
-135 80 -158 97 -161 120 -2 19 15 55 59 125 76 120 87 133 113 133 12 0 53
-20 91 -43z m3160 33 c3 -5 -3 -10 -14 -10 -12 0 -21 5 -21 10 0 6 6 10 14 10
8 0 18 -4 21 -10z m-820 -10 c4 -6 12 -10 18 -9 25 3 38 -1 32 -11 -3 -6 1
-13 9 -16 23 -9 20 -34 -4 -34 -11 0 -20 6 -20 14 0 7 -10 16 -22 20 -38 10
-44 7 -20 -10 16 -11 22 -24 20 -42 -4 -32 -28 -42 -28 -12 0 16 -5 21 -17 18
-14 -4 -18 1 -17 21 1 27 23 71 36 71 4 0 10 -5 13 -10z m620 -31 c4 -5 -1
-19 -10 -29 -11 -12 -16 -29 -13 -45 3 -14 2 -25 -2 -25 -21 0 -28 95 -7 103
19 8 25 8 32 -4z m-789 -41 c19 -23 19 -23 -2 -5 -11 9 -24 14 -27 10 -4 -3
-7 -1 -7 5 0 19 15 14 36 -10z m711 16 c-3 -3 -12 -4 -19 -1 -8 3 -5 6 6 6 11
1 17 -2 13 -5z m-460 -41 c4 -10 13 -23 20 -28 11 -9 7 -18 -23 -48 -21 -20
-40 -35 -42 -32 -3 3 3 12 14 20 18 14 17 16 -16 19 -24 2 -25 37 -1 43 11 3
18 9 15 14 -6 11 4 29 17 29 5 0 13 -8 16 -17z m720 1 c-3 -3 -12 -4 -19 -1
-8 3 -5 6 6 6 11 1 17 -2 13 -5z m-1737 -36 c8 -13 15 -43 15 -68 l0 -46 -35
17 c-47 23 -64 52 -49 82 23 42 47 48 69 15z m1444 7 c-4 -8 -8 -15 -10 -15
-2 0 -4 7 -4 15 0 8 4 15 10 15 5 0 7 -7 4 -15z m50 -1 c25 -9 19 -24 -9 -24
-24 0 -32 10 -18 23 8 8 8 8 27 1z m51 -41 c-11 -27 -8 -53 9 -72 20 -22 20
-31 2 -31 -8 0 -17 11 -20 24 -4 18 -11 23 -26 19 -23 -6 -28 15 -5 23 8 4 15
14 15 23 0 20 8 31 23 31 5 0 6 -8 2 -17z m-601 -15 c3 -13 1 -27 -4 -32 -7
-7 -10 -4 -10 6 0 8 -10 23 -22 31 l-23 16 26 0 c19 1 28 -5 33 -21z m546 12
c0 -5 -5 -10 -11 -10 -5 0 -7 5 -4 10 3 6 8 10 11 10 2 0 4 -4 4 -10z m-638
-45 c0 -5 -5 -11 -11 -13 -6 -2 -11 4 -11 13 0 9 5 15 11 13 6 -2 11 -8 11
-13z m768 -5 c0 -11 -7 -20 -15 -20 -13 0 -14 4 -5 20 6 11 13 20 15 20 3 0 5
-9 5 -20z m-650 -21 c0 -5 -4 -9 -10 -9 -5 0 -10 7 -10 16 0 8 5 12 10 9 6 -3
10 -10 10 -16z m-42 -28 c-8 -14 -14 -16 -23 -7 -10 8 -9 13 4 22 22 17 33 7
19 -15z m493 19 c29 -16 24 -31 -7 -20 -14 6 -42 10 -62 10 -28 0 -33 3 -22
10 20 13 66 13 91 0z m-571 -19 c0 -10 -30 -24 -37 -17 -3 3 -2 9 2 15 8 13
35 15 35 2z m787 -7 c-3 -3 -12 -4 -19 -1 -8 3 -5 6 6 6 11 1 17 -2 13 -5z
m-702 -51 c3 -15 11 -31 16 -34 7 -4 7 -19 2 -40 -7 -26 -15 -34 -35 -36 -23
-1 -25 1 -21 30 3 18 6 48 7 67 4 41 3 40 15 40 5 0 12 -12 16 -27z m-2757 -8
c20 -14 42 -25 50 -25 7 0 18 11 24 25 13 29 19 30 58 10 35 -18 35 -17 14
-56 -8 -17 -14 -32 -12 -34 2 -1 50 -30 108 -64 113 -65 109 -65 140 -11 7 12
13 11 44 -5 20 -11 36 -21 36 -24 0 -9 -63 -107 -83 -128 -11 -13 -27 -23 -35
-23 -9 0 -73 34 -143 75 -71 41 -132 75 -136 75 -5 0 -14 -9 -21 -20 -12 -19
-12 -19 -47 1 -36 22 -43 33 -25 44 20 13 9 31 -36 58 -51 31 -51 19 2 102 9
14 18 25 21 25 2 0 21 -11 41 -25z m3242 16 c0 -5 -7 -11 -15 -15 -15 -5 -20
5 -8 17 9 10 23 9 23 -2z m2918 -49 c39 -39 142 -191 142 -210 0 -25 -123
-125 -148 -120 -9 2 -39 32 -66 68 -27 36 -52 66 -57 68 -9 4 -79 -47 -79 -57
0 -3 14 -22 29 -41 l29 -35 22 20 22 20 29 -35 c15 -19 29 -39 29 -45 0 -19
-70 -66 -93 -63 -14 2 -46 34 -90 93 -78 104 -87 127 -61 156 25 28 252 199
264 199 6 0 18 -8 28 -18z m-2761 -88 c-9 -9 -28 6 -21 18 4 6 10 6 17 -1 6
-6 8 -13 4 -17z m-737 -14 c0 -5 -4 -10 -10 -10 -5 0 -10 5 -10 10 0 6 5 10
10 10 6 0 10 -4 10 -10z m-746 -41 c-7 -8 -14 -20 -14 -25 0 -10 -45 -54 -55
-54 -3 0 4 14 15 32 10 17 17 35 14 40 -3 5 5 17 18 27 27 23 46 6 22 -20z
m1412 17 c-4 -17 -1 -26 11 -30 15 -6 15 -8 3 -16 -13 -8 -12 -12 5 -25 12
-10 14 -15 5 -12 -18 4 -40 -16 -40 -37 0 -19 11 -21 27 -5 9 9 12 7 10 -9 0
-11 -10 -23 -21 -26 -25 -6 -39 2 -32 20 3 8 1 14 -4 14 -18 0 -20 38 -3 76
10 21 18 44 19 49 1 6 2 13 3 18 0 4 6 7 12 7 7 0 9 -9 5 -24z m164 9 c0 -9
-6 -12 -15 -9 -8 4 -15 10 -15 15 0 5 7 9 15 9 8 0 15 -7 15 -15z m-666 -32
c5 -17 3 -29 -6 -34 -10 -7 -10 -11 0 -21 21 -21 13 -31 -18 -24 -36 7 -39 -6
-5 -24 18 -9 25 -22 25 -42 0 -27 -20 -42 -20 -15 0 6 -7 20 -15 30 -13 18
-14 17 -30 -13 -9 -17 -14 -39 -10 -48 6 -15 -10 -32 -31 -32 -7 0 -14 16 -16
36 -3 29 -1 38 14 42 20 5 24 18 7 24 -6 2 5 21 25 42 28 28 35 41 26 51 -8 9
-7 14 5 19 8 3 15 12 15 21 0 26 27 17 34 -12z m-864 -13 c0 -11 -4 -20 -10
-20 -5 0 -10 9 -10 20 0 11 5 20 10 20 6 0 10 -9 10 -20z m710 10 c-20 -13
-33 -13 -25 0 3 6 14 10 23 10 15 0 15 -2 2 -10z m883 -87 c47 -49 46 -58 -1
-13 -18 17 -39 30 -47 30 -10 0 -15 10 -15 33 1 29 2 30 12 12 6 -11 29 -39
51 -62z m-913 28 c-6 -12 -15 -21 -21 -21 -5 0 -2 11 7 25 20 30 31 26 14 -4z
m-682 -46 c-5 -5 -35 -18 -66 -27 l-57 -18 63 6 c74 6 90 0 66 -27 -21 -24
-33 -24 -50 -1 -10 14 -15 15 -25 5 -10 -11 -10 -13 0 -13 7 0 10 -4 6 -10 -3
-5 2 -18 12 -30 10 -11 19 -33 20 -48 8 -88 40 -281 52 -300 8 -16 10 -40 6
-72 -4 -31 -2 -56 6 -72 11 -21 11 -22 -4 -9 -29 24 -18 -5 18 -49 36 -43 43
-45 24 -7 -11 23 13 0 72 -68 27 -32 61 -55 81 -55 9 0 9 3 0 12 -17 17 -15
29 3 22 11 -4 13 -2 9 9 -8 21 13 57 33 57 10 0 14 6 10 19 -3 11 2 26 12 35
15 13 16 8 17 -60 1 -66 -1 -74 -17 -74 -20 0 -25 -15 -9 -25 5 -3 7 -12 3
-21 -3 -8 2 -22 10 -32 9 -9 22 -28 29 -42 12 -23 15 -25 38 -13 l25 13 -22 6
c-29 8 -30 40 -2 47 16 4 19 11 14 26 -5 15 -2 21 10 21 9 0 13 5 9 11 -3 6
-15 9 -25 6 -25 -7 -24 5 1 21 27 17 25 38 -6 67 l-26 24 25 23 c23 21 24 23
10 56 -8 19 -12 39 -9 45 2 7 5 6 5 -3 1 -22 62 -44 74 -27 5 7 6 3 2 -12 -6
-19 0 -29 29 -53 20 -16 36 -36 36 -43 0 -7 3 -15 8 -18 4 -2 1 -2 -5 -1 -15
4 -17 -12 -3 -21 14 -9 12 -36 -2 -34 -29 3 -40 -2 -34 -17 4 -12 1 -14 -13
-9 -11 3 -22 2 -25 -4 -6 -9 39 -26 62 -22 6 1 12 -2 12 -8 0 -5 -6 -12 -12
-15 -10 -5 -10 -7 0 -12 17 -8 15 -21 -8 -44 -20 -20 -19 -20 5 -32 13 -7 25
-17 26 -23 1 -5 4 -15 6 -22 3 -7 -2 -27 -11 -44 -9 -18 -16 -38 -16 -45 0
-21 -112 -114 -137 -114 -13 0 -23 -4 -23 -8 0 -5 -10 -14 -22 -20 l-23 -11
23 0 c12 -1 22 4 22 9 0 6 7 10 15 10 31 0 13 -26 -33 -46 -26 -12 -82 -38
-125 -59 -43 -20 -93 -39 -112 -42 -18 -3 -36 -12 -39 -19 -4 -11 1 -13 22 -8
l27 5 -23 -20 c-13 -11 -29 -18 -36 -15 -10 4 -16 -9 -21 -43 -8 -56 -22 -86
-36 -78 -17 11 -9 -18 9 -31 14 -10 15 -15 4 -26 -23 -23 -52 25 -52 86 l0 51
-22 -35 c-27 -44 -26 -80 2 -158 46 -125 9 -89 -68 68 -21 43 -27 50 -30 33
-2 -12 11 -49 28 -83 17 -34 30 -64 27 -66 -7 -7 -68 75 -72 97 -5 23 -23 49
-36 49 -9 0 1 -37 26 -95 l17 -40 -21 19 c-12 11 -25 33 -29 49 -4 17 -18 37
-30 45 -21 14 -22 13 -22 -14 l0 -29 -23 28 -22 28 -80 -36 c-44 -20 -101 -47
-128 -59 l-47 -23 21 -27 c20 -25 22 -26 39 -11 17 16 21 15 48 -5 38 -28 79
-23 105 12 18 25 19 30 7 55 -24 46 -24 49 -6 34 14 -12 18 -12 30 4 13 18 15
16 35 -21 41 -76 53 -91 86 -110 29 -16 25 -38 -7 -42 -32 -4 -34 -8 -13 -28
8 -9 15 -25 15 -36 0 -22 -37 -57 -60 -58 -8 0 -4 6 10 13 14 7 26 23 28 35 4
28 -1 28 -34 -3 -15 -14 -33 -24 -40 -21 -8 3 -11 -1 -7 -9 3 -8 9 -12 14 -9
5 3 9 1 9 -4 0 -5 -11 -9 -25 -9 -14 0 -25 4 -25 9 0 5 -6 15 -13 23 -11 10
-18 10 -38 -1 -30 -17 -142 -18 -171 -1 -39 21 -50 36 -43 57 7 22 25 28 25 8
0 -34 78 -78 81 -45 7 62 7 87 -1 87 -5 0 -11 -4 -14 -9 -3 -5 -15 -7 -27 -4
-16 5 -19 11 -14 33 4 19 1 33 -10 44 -25 24 -33 20 -57 -30 -17 -38 -23 -43
-31 -29 -5 9 -9 42 -8 72 0 45 6 64 35 107 34 52 114 126 135 126 6 0 11 4 11
9 0 5 12 12 28 17 15 4 29 8 32 9 3 1 24 6 48 10 24 4 49 14 57 21 8 8 15 10
17 4 8 -25 64 3 103 52 44 56 88 88 122 88 17 0 21 4 16 17 -5 14 -1 15 30 10
39 -6 47 2 22 23 -8 7 -12 17 -9 22 4 6 10 5 14 -3 7 -10 11 -10 24 0 8 7 20
10 25 7 5 -4 12 -2 16 4 3 5 1 10 -4 10 -6 0 -11 5 -11 10 0 6 18 10 39 10 22
0 41 4 43 8 5 12 116 78 171 101 38 16 47 25 47 45 0 27 -15 42 -25 26 -3 -5
-18 -10 -33 -10 -15 0 -47 -14 -71 -30 l-44 -30 -46 27 c-69 40 -148 134 -183
218 -43 104 -57 154 -45 162 8 5 3 9 -13 13 -15 4 -23 13 -21 21 2 8 6 22 8
32 4 11 0 17 -13 17 -9 0 -14 3 -11 7 4 3 2 12 -4 19 -6 7 -7 19 -3 26 20 32
2 76 -28 70 -19 -4 -6 16 13 21 12 3 18 10 14 17 -3 6 -2 25 4 43 12 39 17
232 7 268 -10 35 26 63 100 80 30 7 54 17 55 23 1 6 4 0 8 -14 5 -14 4 -29 -1
-35z m-1970 25 c68 -36 67 -33 36 -81 -16 -24 -30 -46 -31 -48 -2 -3 -17 3
-32 12 l-29 17 -22 -35 c-23 -37 -21 -61 5 -71 8 -4 58 21 116 57 l102 63 65
-35 c35 -19 69 -44 74 -56 12 -24 -10 -69 -90 -188 -56 -83 -78 -91 -141 -49
-23 15 -41 30 -41 33 0 5 42 72 56 90 1 1 13 -4 26 -13 31 -22 34 -21 62 21
19 27 23 40 15 49 -25 30 -48 24 -141 -36 -52 -33 -100 -60 -107 -60 -20 0
-128 68 -135 85 -8 21 0 37 67 145 57 91 81 120 99 120 5 0 25 -9 46 -20z
m3417 -10 c7 -12 -12 -40 -26 -40 -5 0 -9 11 -9 25 0 25 23 35 35 15z m-428
-78 c39 -21 51 -23 142 -19 l100 4 -9 -23 c-14 -37 12 -20 40 26 22 36 40 51
40 34 0 -4 -20 -37 -45 -74 -25 -37 -45 -74 -45 -81 0 -12 2 -12 9 0 5 7 14
10 21 6 8 -5 7 -12 -6 -26 -18 -20 -44 -26 -44 -9 0 6 -5 10 -11 10 -8 0 -8
-5 1 -15 10 -13 6 -18 -26 -31 -23 -10 -33 -19 -25 -22 15 -5 131 47 131 59 0
4 8 10 17 13 14 6 14 3 -3 -16 -10 -12 -30 -32 -44 -44 l-25 -22 28 5 c20 4
27 1 27 -11 0 -9 4 -16 9 -16 5 0 7 -8 4 -19 -3 -10 0 -22 6 -25 6 -4 11 -2
11 3 0 6 5 11 10 11 6 0 10 -7 10 -15 0 -8 -6 -15 -14 -15 -8 0 -16 -7 -20
-15 -3 -8 -12 -15 -21 -15 -12 0 -15 -13 -14 -62 1 -35 3 -55 6 -45 3 13 10
16 26 11 20 -6 20 -5 8 10 -12 14 -12 18 1 29 18 13 50 116 42 129 -3 5 7 6
23 2 22 -5 25 -4 17 6 -15 15 -7 121 10 135 6 6 11 16 11 24 0 7 10 17 23 22
24 9 29 0 11 -18 -9 -9 -2 -13 25 -18 32 -6 36 -11 36 -38 0 -23 3 -28 11 -20
7 7 8 20 3 34 -4 13 -7 34 -5 46 1 12 -3 32 -9 43 -14 26 -11 31 17 24 15 -4
22 -14 22 -32 0 -15 7 -61 15 -102 11 -59 15 -68 17 -40 1 19 2 42 1 50 0 11
3 10 14 -4 8 -11 14 -29 14 -40 0 -16 3 -17 12 -8 9 9 9 15 0 24 -18 18 -15
23 18 24 25 1 30 -3 30 -22 0 -41 17 -26 28 24 8 39 11 43 17 25 4 -13 11 -23
16 -23 5 0 4 12 -2 26 -5 15 -8 29 -6 31 8 7 82 -40 113 -73 26 -27 33 -44 39
-95 6 -54 9 -60 20 -46 11 16 14 15 29 -8 9 -14 23 -25 31 -25 8 0 17 -12 20
-27 3 -16 9 -40 14 -54 7 -24 5 -27 -28 -39 -20 -7 -61 -24 -91 -38 -78 -37
-151 -60 -172 -54 -11 3 -18 14 -19 31 0 14 -3 20 -6 14 -2 -7 -18 -13 -34
-13 -16 0 -29 -4 -29 -10 0 -5 -4 -10 -10 -10 -5 0 -10 9 -10 20 0 11 -4 20
-10 20 -13 0 -24 -45 -25 -97 0 -33 -4 -43 -17 -43 -9 0 -23 -7 -32 -15 -8 -9
-19 -15 -23 -14 -4 1 -21 1 -37 0 -22 -1 -27 -5 -22 -17 5 -12 2 -15 -9 -10
-14 5 -49 -8 -65 -24 -3 -3 -11 -5 -17 -6 -7 -1 -22 -2 -33 -2 -11 -1 -20 -8
-20 -16 0 -8 -15 -17 -34 -20 -19 -4 -36 -12 -39 -19 -3 -9 -7 -9 -19 1 -13
10 -17 10 -22 -3 -3 -9 -10 -14 -15 -10 -6 3 -15 -3 -21 -12 -8 -13 -13 -14
-16 -5 -9 20 -33 14 -40 -11 -4 -18 -13 -24 -35 -25 -16 0 -39 -8 -51 -16 -12
-9 -30 -16 -40 -16 -10 0 -18 -4 -18 -10 0 -5 -7 -10 -15 -10 -8 0 -32 -9 -52
-20 -21 -11 -43 -20 -50 -20 -7 0 -13 -4 -13 -9 0 -5 -16 -12 -35 -15 -19 -4
-35 -11 -35 -16 0 -6 -9 -10 -20 -10 -14 0 -20 7 -20 24 0 13 -7 29 -15 36 -8
6 -17 22 -21 33 -3 12 -17 45 -30 73 -24 50 -24 51 -8 115 9 35 21 70 27 77
12 15 6 23 -22 25 -11 1 -21 6 -22 12 -7 73 -5 92 13 112 18 19 19 24 6 50
-16 33 -5 101 19 110 23 9 26 -4 7 -33 l-19 -27 28 17 c23 15 27 16 27 3 0 -8
-7 -20 -15 -27 -8 -7 -15 -19 -15 -27 0 -12 3 -12 22 1 26 19 58 21 58 4 0 -6
2 -9 5 -6 3 3 0 17 -6 32 -9 18 -9 30 -2 37 7 7 7 25 1 52 -5 23 -10 57 -11
75 -2 17 -10 39 -19 48 -15 15 -14 18 2 34 11 11 16 27 13 38 -4 17 1 20 41
23 44 4 58 -3 36 -16 -16 -10 -12 -23 10 -30 11 -4 20 -15 20 -28 0 -12 2 -38
3 -57 2 -19 -1 -46 -5 -59 -7 -19 -4 -32 12 -54 12 -15 19 -34 17 -41 -3 -8
-2 -30 3 -51 8 -34 6 -38 -21 -53 -36 -21 -37 -31 -4 -24 15 2 25 0 25 -7 0
-6 -7 -11 -15 -11 -17 0 -20 -16 -5 -25 6 -4 5 -13 -3 -25 -15 -25 -23 -25
-30 -1 -3 14 -1 18 10 14 11 -4 14 -1 11 8 -2 8 -15 15 -27 17 -17 3 -22 9
-18 23 3 10 1 19 -3 19 -5 0 -15 3 -24 6 -21 8 -21 -13 0 -54 8 -18 22 -32 30
-32 10 0 13 -7 8 -25 -6 -23 10 -37 18 -16 2 5 18 12 36 16 33 7 44 -9 22 -31
-6 -6 -1 -10 15 -12 27 -2 31 8 15 38 -14 26 -19 102 -8 117 12 15 38 6 38
-13 0 -29 19 -13 26 21 3 19 10 33 14 30 5 -3 11 -1 15 5 3 5 1 10 -4 10 -6 0
-11 7 -11 15 0 8 -4 15 -10 15 -5 0 -10 6 -10 13 0 8 -11 20 -25 27 -14 7 -25
20 -25 27 0 10 -7 12 -20 8 -14 -4 -20 -2 -20 9 0 21 21 31 31 15 4 -7 12 -10
16 -5 4 5 2 11 -4 13 -13 5 -19 33 -7 33 3 0 15 -5 26 -11 16 -9 19 -8 16 3
-2 7 -14 17 -26 23 -11 5 -23 17 -25 27 -6 22 -3 22 31 1 l27 -18 -30 37 c-17
21 -32 33 -33 28 -2 -6 -8 -8 -13 -5 -5 4 -3 12 3 19 11 11 18 9 43 -9 16 -12
41 -28 55 -34 l25 -12 -25 19 c-20 17 -22 22 -11 36 8 10 9 16 3 16 -6 0 -14
-5 -17 -10 -4 -6 -11 -7 -17 -4 -7 4 -4 10 6 16 13 7 14 13 7 22 -11 13 -50
122 -51 140 0 4 7 5 15 2 9 -3 18 1 22 10 5 13 9 13 32 -3 14 -9 45 -28 68
-41z m3466 -65 c86 -117 90 -123 78 -145 -11 -21 -265 -222 -280 -222 -11 0
-61 65 -61 80 0 7 -25 39 -55 73 -30 33 -55 68 -55 78 0 18 51 66 120 114 49
34 62 27 124 -60 l47 -65 29 22 c37 27 37 32 4 75 -24 32 -27 33 -43 19 -24
-22 -25 -21 -54 23 l-26 39 22 19 c36 33 60 42 79 32 10 -5 42 -42 71 -82z
m-3049 59 c14 -23 14 -26 0 -41 -9 -8 -20 -13 -25 -10 -15 10 -10 25 7 25 9 0
14 6 11 13 -2 6 -12 11 -21 11 -16 -2 -21 8 -9 19 11 12 20 8 37 -17z m-64 6
c0 -13 -12 -22 -22 -16 -10 6 -1 24 13 24 5 0 9 -4 9 -8z m-1920 -12 c0 -5 -7
-10 -15 -10 -8 0 -15 5 -15 10 0 6 7 10 15 10 8 0 15 -4 15 -10z m530 -30 c0
-5 -2 -10 -4 -10 -3 0 -8 5 -11 10 -3 6 -1 10 4 10 6 0 11 -4 11 -10z m43 -31
c-16 -16 -32 -3 -26 22 5 19 7 19 21 5 12 -12 13 -19 5 -27z m-575 -1 c9 -9
12 -9 12 0 0 17 27 15 33 -2 7 -18 -21 -44 -31 -30 -4 6 -15 13 -24 17 -10 3
-18 11 -18 17 0 14 13 13 28 -2z m1202 -64 c0 -9 -7 -14 -17 -12 -25 5 -28 28
-4 28 12 0 21 -6 21 -16z m-2972 -43 l23 -12 -22 -37 c-39 -65 -41 -66 -88
-43 -22 12 -41 23 -41 26 0 3 14 27 31 55 29 48 33 50 53 37 11 -8 31 -19 44
-26z m5000 25 c37 -19 70 -56 51 -56 -10 -1 -8 -5 5 -15 18 -14 16 -16 -30
-36 -149 -64 -196 -91 -206 -120 -5 -16 -16 -29 -24 -29 -17 0 -18 12 -2 28 9
9 9 12 -1 12 -24 0 -61 -50 -62 -83 -1 -18 -5 -43 -10 -57 -7 -21 -8 -19 -5
12 5 45 -3 54 -23 26 -16 -24 -16 -22 -31 -123 -6 -38 -14 -79 -19 -90 -5 -11
-14 -40 -21 -64 -10 -38 -14 -43 -36 -38 -34 6 -30 -2 11 -19 43 -18 47 -39 6
-31 -35 7 -56 -12 -46 -43 5 -16 2 -20 -14 -20 -11 0 -23 -5 -26 -10 -4 -6
-11 -8 -16 -5 -13 9 -11 -29 3 -43 9 -9 9 -12 -3 -12 -7 0 -20 4 -28 9 -19 12
-41 3 -34 -15 3 -8 1 -14 -4 -14 -5 0 -32 -18 -61 -39 -30 -23 -69 -42 -92
-46 -22 -4 -42 -11 -46 -16 -3 -5 -23 -9 -46 -9 -50 0 -98 32 -98 65 0 27 -15
41 -26 24 -5 -9 -11 -7 -20 6 -12 16 -17 14 -63 -26 -28 -24 -51 -48 -51 -53
0 -20 -34 -46 -60 -46 -15 0 -39 9 -53 21 l-27 20 42 40 c23 21 39 41 36 44
-3 3 -28 1 -56 -5 -39 -9 -57 -19 -77 -46 l-26 -34 30 0 c36 0 40 -18 11 -43
-23 -20 -26 -45 -6 -53 10 -4 14 -16 11 -36 -3 -20 0 -28 8 -25 7 2 23 7 37
11 25 7 25 7 5 -10 -19 -16 -18 -16 32 -11 46 5 53 4 58 -14 4 -12 0 -31 -10
-47 -16 -24 -14 -24 15 6 18 18 43 35 56 38 13 3 24 9 24 14 0 10 -31 36 -53
43 -14 5 -18 16 -15 49 4 49 28 66 28 19 0 -16 5 -33 12 -37 8 -5 9 4 4 35 -7
44 1 91 14 91 5 0 10 -11 12 -25 4 -30 23 -34 23 -5 0 11 5 20 10 21 13 1 35
-63 42 -122 l5 -46 117 -6 c132 -7 216 -29 282 -74 62 -43 82 -69 82 -103 0
-16 4 -27 8 -25 12 8 19 -25 18 -88 -1 -83 -10 -112 -34 -112 -13 0 -19 -7
-19 -18 1 -9 -2 -15 -6 -12 -4 3 -10 -3 -12 -13 -4 -14 0 -18 16 -18 18 1 21
-4 19 -42 -1 -32 3 -48 19 -64 21 -21 21 -21 1 -37 -11 -9 -17 -23 -15 -31 4
-13 3 -13 -11 -2 -14 12 -19 7 -42 -37 -14 -28 -22 -51 -18 -51 28 1 117 31
142 49 37 27 37 27 50 -9 5 -16 14 -30 18 -30 8 0 13 -39 16 -122 1 -21 5 -38
9 -38 3 0 16 16 28 35 12 19 43 52 68 72 26 21 51 44 55 51 4 6 14 12 21 12
19 0 76 30 76 40 0 5 7 7 15 4 8 -4 15 -2 15 3 0 5 -12 14 -27 19 l-28 11 25
10 c51 22 161 53 189 53 16 0 45 7 64 15 43 18 68 19 65 3 -2 -6 8 -14 22 -17
14 -4 29 -17 35 -29 5 -12 16 -21 25 -19 10 1 15 -6 15 -21 0 -13 6 -26 12
-30 8 -5 10 -29 8 -67 -8 -120 -15 -138 -77 -186 -67 -52 -236 -196 -308 -262
-74 -68 -50 -71 33 -5 51 40 66 43 48 11 -6 -13 -6 -34 0 -61 10 -45 5 -80
-18 -126 -17 -32 -6 -73 31 -114 11 -12 28 -39 37 -60 18 -37 18 -37 -7 -45
-13 -5 -22 -12 -19 -16 11 -18 -141 -48 -290 -56 -60 -4 -123 -8 -140 -10
-148 -17 -509 -24 -1300 -24 l-930 0 -70 30 c-48 20 -105 34 -185 45 -243 32
-329 59 -352 109 -17 37 2 68 64 108 70 45 82 60 69 86 -9 16 -8 20 7 23 10 2
-2 11 -33 22 -27 10 -73 29 -102 42 -29 12 -53 18 -55 13 -2 -5 -18 0 -36 11
-18 11 -31 24 -27 29 3 5 -25 31 -62 57 -130 93 -177 162 -178 262 0 46 3 62
14 62 14 0 13 11 -11 68 -12 31 -11 35 9 51 16 13 19 21 11 29 -8 8 -8 15 0
25 6 7 18 38 26 68 8 30 15 47 15 37 1 -9 5 -18 9 -20 4 -1 25 -34 46 -73 21
-38 55 -91 77 -117 43 -52 46 -58 24 -58 -20 0 -18 -10 4 -37 25 -29 31 -29
31 2 0 14 5 25 10 25 6 0 10 9 10 21 0 16 4 19 18 14 9 -4 40 -13 67 -20 74
-18 140 -49 189 -90 l44 -36 18 80 c17 74 19 79 40 71 12 -5 47 -13 77 -19 94
-17 152 -48 212 -113 30 -32 55 -53 55 -45 0 8 3 28 6 44 5 25 2 31 -23 43
-15 8 -36 15 -46 16 -30 2 -32 13 -5 42 28 31 93 163 115 237 47 157 144 255
250 255 15 0 27 11 39 36 18 37 65 73 133 100 31 12 48 13 73 6 18 -6 57 -14
86 -17 48 -6 65 -25 21 -25 -10 0 -20 -4 -20 -10 -1 -5 -2 -16 -3 -22 0 -7 -9
-14 -19 -16 -14 -3 -18 2 -15 20 2 15 -2 23 -12 23 -9 0 -15 -11 -17 -27 l-2
-28 68 0 c37 0 70 2 73 5 3 3 2 23 -2 45 -5 25 -4 40 3 40 5 0 4 7 -3 15 -7 9
-10 27 -6 45 3 17 1 30 -4 30 -6 0 -10 4 -10 10 0 9 71 50 88 50 4 0 8 -30 8
-67 1 -73 28 -157 64 -195 11 -12 20 -28 20 -35 0 -8 7 -13 16 -11 11 2 18 -5
19 -20 2 -24 -10 -38 -19 -23 -4 5 -19 3 -37 -6 -22 -11 -27 -18 -19 -28 17
-20 -5 -61 -38 -73 -17 -6 -33 -8 -36 -5 -3 4 -4 -8 -2 -24 4 -35 -18 -36 -27
-2 -6 23 -40 25 -58 3 -11 -14 -10 -18 6 -30 10 -8 26 -14 36 -14 9 0 22 -6
28 -14 6 -7 24 -16 39 -20 43 -9 59 -23 44 -38 -18 -18 -15 -28 8 -28 15 0 20
-7 20 -27 0 -16 5 -35 10 -43 19 -30 11 27 -15 98 -26 72 -32 112 -16 112 5 0
12 -15 15 -34 4 -18 17 -44 29 -58 25 -27 49 -92 41 -113 -3 -7 0 -16 6 -20 8
-5 6 -13 -6 -26 -16 -18 -16 -19 4 -19 13 0 22 -6 22 -15 0 -18 -20 -57 -35
-67 -18 -13 -33 21 -28 61 3 24 1 41 -6 46 -9 5 -11 -17 -9 -82 3 -86 4 -88
28 -89 52 -2 57 -5 68 -29 8 -16 20 -25 35 -25 32 0 97 53 120 95 9 19 28 51
42 71 16 23 25 51 25 75 0 21 5 41 10 44 17 10 11 35 -8 35 -22 0 -79 83 -88
128 -4 20 0 38 11 56 17 25 9 36 -10 17 -6 -6 -11 2 -12 22 -2 24 6 41 32 69
18 21 42 51 52 68 12 20 30 34 55 41 21 5 38 12 38 15 0 3 -10 2 -22 -1 -16
-6 -20 -4 -15 8 3 8 -1 27 -9 42 -18 34 -18 35 4 35 9 0 24 5 32 11 12 8 9 9
-12 5 -48 -11 -32 17 24 42 28 12 49 25 46 28 -4 3 -25 -4 -49 -15 -23 -12
-45 -19 -48 -16 -2 3 9 20 25 38 16 17 22 26 14 20 -8 -7 -20 -13 -27 -13 -23
0 -14 18 17 37 35 20 38 39 9 69 -25 26 -35 88 -20 126 7 19 30 36 83 61 226
109 332 157 336 152 3 -2 -3 -16 -12 -30 -19 -28 -16 -30 31 -13 36 13 42 25
17 30 -13 2 -12 7 6 26 11 12 27 22 35 22 18 0 20 -31 3 -48 -9 -9 -6 -12 15
-12 35 0 46 26 21 45 -18 14 -18 16 -2 28 10 8 76 40 147 73 l130 59 -5 50
c-3 28 -7 60 -10 72 -3 17 3 24 32 33 19 7 38 18 41 26 3 8 18 14 34 14 16 0
29 4 29 10 0 12 -59 37 -108 45 l-37 6 43 -20 c58 -28 55 -45 -5 -37 -37 5
-44 4 -30 -4 43 -27 -11 -51 -58 -26 -36 19 -62 20 -68 4 -2 -7 -8 -10 -11 -6
-4 3 2 16 15 29 19 19 20 23 5 31 -30 17 -16 27 35 26 28 0 53 3 56 6 4 3 -1
6 -10 6 -9 0 -17 7 -17 15 0 11 11 15 35 15 20 0 52 7 72 15 51 22 87 19 121
-10 26 -22 31 -23 42 -10 7 8 23 15 36 15 25 0 74 19 74 30 0 3 -18 19 -40 36
-31 22 -40 35 -38 54 3 21 8 25 33 24 19 0 35 7 43 18 11 15 17 16 28 7 19
-15 55 -5 88 26 32 29 29 29 64 11z m92 10 c0 -2 -11 -6 -25 -8 -14 -3 -25 -1
-25 3 0 5 11 9 25 9 14 0 25 -2 25 -4z m-2240 -16 c0 -5 -5 -10 -11 -10 -5 0
-7 5 -4 10 3 6 8 10 11 10 2 0 4 -4 4 -10z m16 -22 l-6 -33 23 28 c13 15 27
24 31 20 4 -5 18 -8 29 -8 16 0 23 -7 25 -25 2 -22 1 -23 -8 -7 -14 21 -39 22
-47 2 -3 -9 -18 -22 -34 -31 -29 -14 -29 -14 -78 13 -3 2 59 68 68 72 2 0 1
-14 -3 -31z m2309 -28 c-38 -11 -71 -20 -72 -20 -2 0 -3 4 -3 10 0 13 56 28
105 28 36 1 33 -1 -30 -18z m-3445 -32 c0 -4 -9 -10 -20 -13 -11 -3 -20 -11
-20 -17 0 -19 -32 -48 -52 -48 -17 0 -17 2 -2 25 8 13 13 29 10 34 -4 5 3 19
14 29 18 16 25 18 46 8 13 -6 24 -14 24 -18z m-1478 -89 c95 -56 175 -103 177
-105 6 -5 -18 -56 -38 -83 l-18 -24 -182 108 c-99 59 -181 110 -181 113 0 10
55 92 62 92 4 0 85 -46 180 -101z m2508 81 c0 -5 -4 -10 -10 -10 -5 0 -10 5
-10 10 0 6 5 10 10 10 6 0 10 -4 10 -10z m65 0 c3 -5 1 -10 -4 -10 -6 0 -11 5
-11 10 0 6 2 10 4 10 3 0 8 -4 11 -10z m105 0 c0 -5 -4 -10 -10 -10 -5 0 -10
5 -10 10 0 6 5 10 10 10 6 0 10 -4 10 -10z m20 -27 c0 -5 -9 -19 -20 -33 -21
-27 -27 -12 -8 20 13 20 28 27 28 13z m1717 -10 c3 -7 -3 -9 -16 -6 -12 3 -21
10 -21 15 0 13 32 6 37 -9z m-1877 -12 c11 -21 -3 -40 -15 -21 -4 6 -10 8 -15
5 -4 -3 -10 1 -13 9 -12 30 27 36 43 7z m2316 -3 c-7 -13 -14 -14 -23 -6 -19
16 -16 23 11 23 19 0 21 -3 12 -17z m1874 -10 c18 -18 44 -50 58 -70 13 -21
28 -38 33 -38 5 0 44 27 86 60 l78 60 23 -27 c50 -61 57 -51 -135 -199 -98
-76 -204 -158 -236 -183 l-59 -45 -19 24 c-10 14 -25 39 -33 55 -8 17 -38 57
-65 88 -55 63 -56 65 -40 99 11 25 243 208 263 208 7 0 27 -15 46 -32z m-2260
-22 c0 -3 -4 -8 -10 -11 -5 -3 -10 -1 -10 4 0 6 5 11 10 11 6 0 10 -2 10 -4z
m260 -26 c0 -5 -7 -7 -15 -4 -8 4 -12 10 -9 15 6 11 24 2 24 -11z m-133 -22
c-3 -8 -6 -5 -6 6 -1 11 2 17 5 13 3 -3 4 -12 1 -19z m464 1 l22 -22 -24 -18
c-13 -11 -32 -17 -41 -14 -10 3 -28 8 -40 12 -21 6 -22 5 -9 -10 12 -15 10
-17 -15 -18 -16 -1 -38 -2 -49 -3 -12 -1 -23 -12 -29 -29 -10 -26 -7 -32 28
-64 29 -27 36 -40 32 -58 -5 -18 1 -29 25 -49 17 -14 34 -26 39 -26 4 0 3 -11
-3 -25 -7 -14 -14 -25 -17 -25 -3 0 -19 22 -37 49 -42 64 -112 100 -212 108
-54 4 -71 9 -67 19 3 7 0 16 -5 20 -7 4 -7 10 0 17 6 6 11 18 11 28 0 16 67
49 215 105 79 30 148 31 176 3z m-901 2 c0 -6 -4 -13 -10 -16 -5 -3 -10 1 -10
9 0 9 5 16 10 16 6 0 10 -4 10 -9z m-4578 -147 c90 -54 196 -117 236 -140 41
-24 79 -44 85 -44 7 0 32 34 57 75 25 41 49 75 55 75 5 0 25 -9 43 -20 l32
-20 -48 -77 c-27 -43 -66 -104 -86 -136 l-37 -58 -37 22 c-20 12 -57 34 -82
49 -25 15 -134 80 -242 144 -109 64 -198 122 -198 128 0 10 52 98 57 98 1 0
76 -43 165 -96z m2978 36 c0 -5 -4 -10 -9 -10 -6 0 -13 5 -16 10 -3 6 1 10 9
10 9 0 16 -4 16 -10z m-165 -48 c-6 -16 -7 -16 -16 0 -7 13 -6 22 3 32 11 12
13 12 16 -1 2 -8 1 -22 -3 -31z m2735 10 c-1 -15 -2 -15 -15 2 -8 11 -21 16
-30 13 -8 -4 -15 -2 -15 2 0 14 23 19 43 9 9 -5 17 -16 17 -26z m-1062 16 c-2
-6 -10 -14 -16 -16 -7 -2 -10 2 -6 12 7 18 28 22 22 4z m117 -18 c-3 -5 -14
-10 -23 -10 -15 0 -15 2 -2 10 20 13 33 13 25 0z m415 0 c-8 -5 -19 -10 -25
-10 -5 0 -3 5 5 10 8 5 20 10 25 10 6 0 3 -5 -5 -10z m-602 -12 c-2 -6 -10
-14 -16 -16 -7 -2 -10 2 -6 12 7 18 28 22 22 4z m138 -7 c-3 -5 -21 -16 -40
-25 -27 -13 -33 -21 -29 -39 4 -21 4 -21 -11 -3 -17 22 -52 14 -42 -9 21 -52
21 -51 3 -36 -9 7 -17 20 -17 27 0 19 3 19 -94 -27 -47 -22 -84 -46 -82 -52 1
-7 1 -9 -1 -4 -7 12 -20 9 -85 -22 -35 -16 -73 -32 -85 -36 -13 -3 -23 -13
-23 -21 0 -11 -6 -13 -19 -9 -13 4 -27 -1 -40 -14 -11 -11 -27 -18 -35 -15 -8
3 -24 0 -36 -6 -16 -8 -19 -17 -14 -33 6 -21 6 -21 -12 -5 -23 20 -48 10 -38
-15 3 -9 2 -17 -4 -17 -6 0 -12 5 -14 11 -5 16 -48 1 -48 -17 0 -7 -8 -13 -17
-12 -41 3 -55 -2 -49 -18 4 -12 2 -15 -9 -10 -22 8 -68 -11 -59 -26 5 -8 2 -9
-10 -5 -20 8 -56 -12 -56 -32 0 -11 -3 -11 -16 0 -12 10 -17 10 -23 0 -5 -7
-12 -13 -17 -14 -5 -1 -8 -8 -8 -14 2 -15 -8 -17 -21 -4 -14 14 -207 -79 -201
-96 3 -7 1 -13 -3 -13 -5 0 -11 4 -13 9 -1 5 -20 2 -41 -6 -31 -13 -37 -19
-32 -37 6 -19 5 -20 -8 -3 -8 9 -19 17 -26 17 -14 0 -15 -27 -1 -35 6 -3 10
-11 10 -17 0 -7 -5 -6 -15 2 -8 6 -19 9 -25 5 -5 -3 -10 -1 -10 4 0 6 -7 11
-15 11 -12 0 -14 -7 -9 -27 6 -26 5 -27 -11 -11 -15 14 -22 15 -56 3 -20 -8
-49 -21 -63 -30 -24 -16 -25 -18 -10 -43 l16 -27 -20 23 c-11 12 -25 22 -32
22 -6 0 -30 -20 -52 -45 -25 -27 -49 -45 -62 -44 -21 0 -21 0 -1 9 11 4 35 28
54 53 26 36 53 55 120 88 47 23 102 47 121 54 30 11 260 115 528 241 84 39
193 88 307 137 44 19 181 81 305 137 124 56 239 108 255 116 35 16 48 17 41 5z
m-376 -21 c0 -5 -7 -10 -16 -10 -8 0 -12 5 -9 10 3 6 10 10 16 10 5 0 9 -4 9
-10z m175 0 c-3 -5 -11 -10 -16 -10 -6 0 -7 5 -4 10 3 6 11 10 16 10 6 0 7 -4
4 -10z m665 0 c-20 -13 -33 -13 -25 0 3 6 14 10 23 10 15 0 15 -2 2 -10z
m-720 -19 c0 -5 -7 -12 -16 -15 -14 -5 -15 -4 -4 9 14 17 20 19 20 6z m753
-13 c-6 -7 -10 -21 -10 -32 0 -17 1 -17 12 -2 14 19 41 21 52 4 11 -18 10 -52
-2 -60 -5 -4 4 -8 22 -8 17 0 35 5 38 10 3 6 14 10 23 9 14 0 15 -2 2 -7 -8
-4 -15 -13 -16 -19 -2 -29 -5 -33 -19 -33 -8 0 -15 -4 -15 -9 0 -10 -38 -24
-57 -22 -7 1 -13 -2 -13 -7 0 -5 -18 -9 -40 -9 -22 0 -40 2 -40 5 0 2 12 16
28 30 16 16 20 23 10 19 -12 -4 -18 -2 -18 7 0 8 -7 16 -15 20 -21 8 -19 25 6
47 13 11 19 25 15 37 -5 13 0 22 16 29 27 12 35 9 21 -9z m-938 2 c3 -5 -3
-10 -15 -10 -12 0 -18 5 -15 10 3 6 10 10 15 10 5 0 12 -4 15 -10z m814 -2
c19 -11 19 -13 -8 -47 -37 -48 -58 -105 -67 -179 -6 -57 -8 -60 -35 -64 -36
-6 -37 10 -5 45 13 14 26 40 29 59 28 184 31 198 49 198 10 0 27 -5 37 -12z
m-2640 -29 c-8 -5 -24 -9 -35 -9 -12 0 -27 -7 -34 -15 -7 -8 -18 -15 -25 -15
-7 0 -28 -11 -48 -24 -33 -23 -47 -24 -47 -4 0 4 5 8 12 8 6 0 25 11 43 24 17
13 49 29 71 35 21 6 46 15 54 21 10 6 16 6 19 -1 2 -6 -3 -15 -10 -20z m1941
17 c0 -2 -8 -10 -17 -17 -16 -13 -17 -12 -4 4 13 16 21 21 21 13z m920 -11 c0
-8 -4 -15 -10 -15 -5 0 -10 7 -10 15 0 8 5 15 10 15 6 0 10 -7 10 -15z m-980
-19 c0 -3 -4 -8 -10 -11 -5 -3 -10 -1 -10 4 0 6 5 11 10 11 6 0 10 -2 10 -4z
m-1833 -52 c6 -16 12 -39 13 -52 0 -19 -3 -21 -19 -13 -14 8 -20 7 -25 -4 -7
-18 -32 -20 -40 -2 -4 9 -8 9 -11 1 -3 -7 -15 -10 -25 -7 -12 3 -20 0 -20 -7
0 -9 -6 -8 -18 3 -23 21 -32 21 -32 2 0 -22 -17 -18 -23 6 -9 33 1 46 56 72
89 43 126 43 144 1z m1763 17 c0 -5 -7 -12 -16 -15 -14 -5 -15 -4 -4 9 14 17
20 19 20 6z m-1078 -33 c-7 -7 -12 -8 -12 -2 0 14 12 26 19 19 2 -3 -1 -11 -7
-17z m938 -33 c-7 -9 -15 -13 -17 -11 -7 7 7 26 19 26 6 0 6 -6 -2 -15z m-78
-37 c-7 -7 -12 -8 -12 -2 0 14 12 26 19 19 2 -3 -1 -11 -7 -17z m1252 -2 c-11
-8 -34 -17 -50 -20 -25 -5 -23 -3 11 14 47 23 68 26 39 6z m-1314 -21 c-7 -9
-15 -13 -17 -11 -7 7 7 26 19 26 6 0 6 -6 -2 -15z m1320 -5 c0 -5 -4 -10 -10
-10 -5 0 -10 5 -10 10 0 6 5 10 10 10 6 0 10 -4 10 -10z m40 -25 c0 -10 -62
-36 -78 -32 -12 3 -7 9 18 20 35 16 60 21 60 12z m-1518 -37 c-7 -7 -12 -8
-12 -2 0 14 12 26 19 19 2 -3 -1 -11 -7 -17z m1518 -8 c0 -5 -2 -10 -4 -10 -3
0 -8 5 -11 10 -3 6 -1 10 4 10 6 0 11 -4 11 -10z m-1584 -28 c-18 -16 -18 -16
-6 6 6 13 14 21 18 18 3 -4 -2 -14 -12 -24z m-56 -16 c0 -2 -7 -9 -15 -16 -13
-11 -14 -10 -9 4 5 14 24 23 24 12z m1650 -10 c0 -3 -4 -8 -10 -11 -5 -3 -10
-1 -10 4 0 6 5 11 10 11 6 0 10 -2 10 -4z m-1720 -25 c0 -5 -7 -11 -14 -14
-10 -4 -13 -1 -9 9 6 15 23 19 23 5z m-60 -25 c0 -3 -4 -8 -10 -11 -5 -3 -10
-1 -10 4 0 6 5 11 10 11 6 0 10 -2 10 -4z m1275 -32 c-9 -14 -15 -27 -13 -28
2 -2 29 -11 60 -20 32 -10 60 -22 64 -27 9 -15 -56 -10 -92 7 -48 23 -60 48
-34 74 28 28 36 25 15 -6z m-1535 6 c0 -5 -4 -10 -10 -10 -5 0 -10 5 -10 10 0
6 5 10 10 10 6 0 10 -4 10 -10z m190 -10 c0 -5 -4 -10 -10 -10 -5 0 -10 5 -10
10 0 6 5 10 10 10 6 0 10 -4 10 -10z m-263 -26 c-9 -9 -28 6 -21 18 4 6 10 6
17 -1 6 -6 8 -13 4 -17z m198 -4 c-3 -5 -11 -10 -16 -10 -6 0 -7 5 -4 10 3 6
11 10 16 10 6 0 7 -4 4 -10z m-265 -15 c0 -9 -6 -12 -15 -9 -8 4 -12 10 -9 15
8 14 24 10 24 -6z m821 -9 c-9 -11 -9 -15 1 -18 9 -3 13 -28 13 -81 0 -42 -2
-77 -5 -77 -8 0 -30 -52 -30 -71 0 -10 -4 -21 -10 -24 -15 -9 -12 -28 4 -22
36 14 -13 -158 -56 -198 -13 -12 -32 -21 -43 -21 -18 0 -20 8 -23 70 -2 38 0
72 5 75 17 13 55 148 48 171 -4 12 -10 18 -14 12 -3 -5 -17 -12 -30 -13 -14
-3 -27 -14 -33 -28 -7 -21 -6 -23 17 -19 32 7 40 -6 22 -32 -12 -18 -15 -18
-20 -5 -10 25 -34 17 -40 -12 -3 -16 -1 -29 4 -31 12 -5 12 -32 -1 -32 -5 0
-14 8 -19 18 -6 9 -11 12 -11 6 0 -6 11 -21 25 -34 29 -27 32 -40 8 -40 -13 0
-14 -3 -5 -12 7 -7 12 -16 12 -20 0 -13 -28 -9 -33 5 -3 6 -6 2 -6 -10 -1 -13
-7 -23 -16 -23 -8 0 -14 3 -14 8 3 19 -2 33 -11 27 -5 -3 -6 -13 -3 -21 5 -14
3 -14 -16 -3 -25 17 -27 25 -4 33 12 5 14 9 5 18 -7 7 -12 20 -12 30 0 10 -9
23 -19 30 -10 6 -17 18 -14 25 3 7 0 13 -6 13 -6 0 -11 11 -11 25 0 14 -4 25
-10 25 -5 0 -10 7 -10 15 0 8 5 15 10 15 6 0 10 -4 10 -10 0 -5 9 -10 20 -10
11 0 20 4 20 9 0 15 -32 36 -50 33 -10 -2 -20 5 -23 17 -6 23 10 42 30 34 8
-3 21 4 29 16 8 11 19 21 24 21 5 0 47 18 94 40 47 22 91 40 98 40 8 0 19 5
25 11 13 13 77 46 82 42 2 -1 -1 -9 -8 -17z m-631 -11 c-7 -9 -15 -13 -17 -11
-7 7 7 26 19 26 6 0 6 -6 -2 -15z m1509 -47 c42 -34 84 -70 95 -81 10 -10 24
-16 32 -13 11 4 13 -1 8 -20 -6 -24 -4 -25 16 -19 15 5 27 1 40 -13 10 -11 16
-23 12 -27 -4 -4 2 -3 13 2 32 16 87 24 99 14 6 -5 54 -11 106 -13 83 -3 103
-8 143 -31 l48 -28 65 26 c79 32 86 30 232 -61 2 -2 1 -16 -3 -33 -5 -23 -15
-33 -41 -41 -37 -12 -43 -24 -19 -37 23 -13 9 -76 -16 -70 -10 3 -20 -2 -23
-10 -4 -10 -14 -13 -35 -8 -17 3 -32 2 -36 -4 -8 -14 -115 -14 -115 -1 0 5 14
17 31 25 17 9 29 19 26 22 -7 6 -47 -15 -74 -39 -12 -11 -26 -18 -31 -14 -5 3
-18 -2 -30 -10 -18 -12 -20 -19 -11 -35 18 -34 1 -34 -67 -1 -35 18 -71 32
-79 32 -20 0 -37 35 -30 63 5 20 1 26 -23 36 -42 18 -90 71 -95 106 -4 28 -5
29 -12 8 -10 -31 -18 -29 -32 7 -13 34 -37 39 -65 13 -17 -15 -18 -15 -18 10
0 20 -5 27 -20 27 -11 0 -20 5 -20 11 0 21 -20 -3 -29 -34 l-9 -32 -7 33 c-5
23 -16 37 -33 43 -82 31 -182 120 -182 162 0 13 94 96 109 97 2 0 38 -28 80
-62z m-1255 13 c-6 -6 -24 19 -24 34 1 6 7 1 15 -9 8 -11 12 -22 9 -25z m-514
19 c0 -5 -9 -10 -21 -10 -11 0 -17 5 -14 10 3 6 13 10 21 10 8 0 14 -4 14 -10z
m190 -15 c-7 -9 -15 -13 -17 -11 -7 7 7 26 19 26 6 0 6 -6 -2 -15z m268 -13
c2 -7 -2 -10 -12 -6 -9 3 -16 11 -16 16 0 13 23 5 28 -10z m-330 -14 c-2 -6
-10 -14 -16 -16 -7 -2 -10 2 -6 12 7 18 28 22 22 4z m876 -13 c-4 -8 -8 -15
-10 -15 -2 0 -4 7 -4 15 0 8 4 15 10 15 5 0 7 -7 4 -15z m1031 -5 c3 -5 15
-10 25 -10 24 0 36 -18 17 -26 -8 -3 -27 6 -42 20 -15 14 -23 26 -17 26 6 0
14 -4 17 -10z m-1993 -22 c-7 -7 -12 -8 -12 -2 0 14 12 26 19 19 2 -3 -1 -11
-7 -17z m988 -14 c0 -8 -4 -12 -10 -9 -5 3 -10 10 -10 16 0 5 5 9 10 9 6 0 10
-7 10 -16z m-1073 -31 c-17 -32 -57 -71 -57 -56 0 6 7 16 16 24 8 7 22 26 30
42 9 16 18 27 20 24 3 -3 -1 -18 -9 -34z m988 17 c0 -7 -6 -15 -12 -17 -8 -3
-13 4 -13 17 0 13 5 20 13 18 6 -3 12 -11 12 -18z m1075 11 c0 -16 -12 -41
-20 -41 -4 0 -5 11 -2 25 4 23 22 36 22 16z m40 -21 c0 -5 -5 -10 -11 -10 -5
0 -7 5 -4 10 3 6 8 10 11 10 2 0 4 -4 4 -10z m-2200 -50 c0 -11 -8 -24 -17
-27 -10 -4 -36 -21 -59 -40 -23 -18 -45 -33 -50 -33 -5 0 -26 -14 -47 -31 -20
-16 -49 -31 -64 -32 -26 -2 -28 1 -28 33 0 33 3 36 80 74 74 37 160 73 178 75
4 1 7 -8 7 -19z m2125 10 c-3 -5 -10 -10 -16 -10 -5 0 -9 5 -9 10 0 6 7 10 16
10 8 0 12 -4 9 -10z m-1855 -10 c0 -5 -4 -10 -10 -10 -5 0 -10 5 -10 10 0 6 5
10 10 10 6 0 10 -4 10 -10z m2186 -27 c-7 -7 -26 7 -26 19 0 6 6 6 15 -2 9 -7
13 -15 11 -17z m-2226 -35 c0 -6 -9 1 -20 15 -11 14 -20 29 -20 34 1 11 40
-37 40 -49z m-990 6 c0 -8 -4 -13 -9 -9 -5 3 -36 -8 -67 -25 -67 -34 -64 -33
-64 -19 0 9 82 52 102 54 3 0 10 3 14 8 12 12 24 8 24 -9z m1288 4 c-3 -7 -17
-14 -31 -16 -31 -4 -27 -22 4 -22 11 0 17 -4 14 -10 -7 -12 -135 -14 -135 -2
0 10 45 32 64 32 8 0 19 7 26 15 15 18 63 20 58 3z m-642 -140 c-17 -18 -47
-51 -65 -73 -30 -35 -32 -36 -14 -7 22 37 91 112 103 112 4 0 -6 -15 -24 -32z
m844 2 c0 -5 -4 -10 -10 -10 -5 0 -10 5 -10 10 0 6 5 10 10 10 6 0 10 -4 10
-10z m2175 -20 c3 -5 1 -10 -4 -10 -6 0 -11 5 -11 10 0 6 2 10 4 10 3 0 8 -4
11 -10z m-842 -36 c-9 -23 -23 -16 -23 12 0 22 2 24 14 14 8 -6 12 -18 9 -26z
m70 2 c4 -9 -2 -17 -15 -21 -23 -8 -44 8 -34 24 10 16 43 13 49 -3z m-1267
-57 c1 -38 -7 -44 -27 -18 -14 19 -20 22 -30 12 -11 -11 -10 -13 1 -13 11 0
11 -3 2 -12 -9 -9 -16 -9 -28 4 -16 16 -11 43 7 33 5 -4 19 1 31 9 29 20 43
16 44 -15z m-1416 -3 c0 -3 -4 -8 -10 -11 -5 -3 -10 -1 -10 4 0 6 5 11 10 11
6 0 10 -2 10 -4z m325 -36 c-9 -16 -18 -30 -21 -30 -2 0 2 14 11 30 9 17 18
30 21 30 2 0 -2 -13 -11 -30z m-235 -30 c0 -5 -2 -10 -4 -10 -3 0 -8 5 -11 10
-3 6 -1 10 4 10 6 0 11 -4 11 -10z m51 -13 c-13 -13 -26 -3 -16 12 3 6 11 8
17 5 6 -4 6 -10 -1 -17z m2495 9 c10 -8 16 -17 12 -21 -7 -7 -48 16 -48 27 0
12 14 9 36 -6z m614 4 c0 -5 -9 -10 -20 -10 -11 0 -20 5 -20 10 0 6 9 10 20
10 11 0 20 -4 20 -10z m-2964 -38 c-17 -16 -18 -16 -5 5 7 12 15 20 18 17 3
-2 -3 -12 -13 -22z m1079 -38 c15 -63 33 -96 48 -88 7 4 9 4 5 -1 -4 -4 2 -23
13 -42 15 -25 49 -142 49 -170 0 -2 -8 -3 -18 -3 -13 0 -21 14 -30 55 -7 30
-30 89 -52 132 -41 83 -63 179 -39 171 7 -2 18 -26 24 -54z m-68 -6 c-2 -13
-4 -5 -4 17 -1 22 1 32 4 23 2 -10 2 -28 0 -40z m1624 29 c-13 -13 -26 -3 -16
12 3 6 11 8 17 5 6 -4 6 -10 -1 -17z m-316 -36 c-17 -15 -17 -15 -11 2 3 10 6
26 6 35 1 15 2 15 11 -2 9 -14 7 -22 -6 -35z m825 15 c0 -3 -4 -8 -10 -11 -5
-3 -10 -1 -10 4 0 6 5 11 10 11 6 0 10 -2 10 -4z m-3870 -16 c0 -5 -4 -10 -9
-10 -6 0 -13 5 -16 10 -3 6 1 10 9 10 9 0 16 -4 16 -10z m1936 -120 c30 -61
35 -89 21 -107 -7 -9 -4 -13 7 -13 9 0 16 -8 16 -20 0 -11 -6 -20 -14 -20 -14
0 -18 7 -31 64 -3 15 -14 47 -24 70 -36 81 -41 97 -41 124 0 26 0 26 20 -8 11
-19 32 -60 46 -90z m-124 -28 c18 -21 39 -92 32 -104 -3 -5 -1 -15 6 -23 9
-10 7 -16 -7 -24 -17 -10 -16 -11 5 -17 24 -7 27 -16 12 -45 -26 -48 -58 -8
-58 71 0 25 -7 62 -16 82 -9 21 -16 44 -16 52 0 9 -13 31 -30 49 -32 36 -40
58 -15 37 13 -11 15 -8 16 21 1 33 1 33 29 -24 15 -32 35 -66 42 -75z m1918
109 c0 -16 -17 -21 -50 -15 -22 5 -28 9 -18 15 18 12 68 11 68 0z m-3700 -31
c0 -5 -5 -10 -11 -10 -5 0 -7 5 -4 10 3 6 8 10 11 10 2 0 4 -4 4 -10z m2923
-63 c3 -8 -4 -14 -19 -15 -17 -1 -22 2 -18 13 7 18 30 20 37 2z m223 -23 c-11
-7 -22 -11 -25 -8 -3 3 3 12 13 20 11 7 22 11 25 8 3 -3 -3 -12 -13 -20z m-61
6 c-4 -6 -1 -18 6 -26 13 -16 6 -30 -10 -19 -12 7 -15 38 -4 48 10 11 15 8 8
-3z m-60 -29 c-3 -6 -11 -8 -17 -5 -6 4 -5 9 3 15 16 10 23 4 14 -10z m147
-13 c-7 -7 -12 -8 -12 -2 0 14 12 26 19 19 2 -3 -1 -11 -7 -17z m-12 -38 c17
-11 17 -11 -27 -15 -33 -3 -45 9 -20 18 19 8 31 7 47 -3z m-75 -10 c3 -5 -1
-10 -9 -10 -8 0 -18 5 -21 10 -3 6 1 10 9 10 8 0 18 -4 21 -10z m-1190 -81
c10 -16 -4 -59 -19 -59 -8 0 -15 14 -18 35 -3 28 -1 35 13 35 10 0 21 -5 24
-11z"/>
<path d="M11850 12795 l0 -45 55 0 55 0 0 45 0 45 -55 0 -55 0 0 -45z"/>
<path d="M12297 12684 c-11 -11 -8 -102 3 -106 5 -1 33 -1 60 0 l51 4 -3 51
-3 52 -50 3 c-28 2 -54 0 -58 -4z"/>
<path d="M12120 12259 c0 -25 33 -22 38 4 2 12 -3 17 -17 17 -15 0 -21 -6 -21
-21z"/>
<path d="M12020 12194 c0 -9 5 -14 12 -12 18 6 21 28 4 28 -9 0 -16 -7 -16
-16z"/>
<path d="M12050 12160 c0 -5 4 -10 9 -10 6 0 13 5 16 10 3 6 -1 10 -9 10 -9 0
-16 -4 -16 -10z"/>
<path d="M12010 12124 c0 -14 3 -14 15 -4 8 7 15 14 15 16 0 2 -7 4 -15 4 -8
0 -15 -7 -15 -16z"/>
<path d="M11960 12093 c-14 -7 -20 -13 -15 -13 6 0 4 -4 -4 -9 -7 -5 -10 -14
-7 -20 9 -14 26 -14 26 0 0 7 7 17 16 24 26 18 13 33 -16 18z"/>
<path d="M12570 12254 c0 -8 7 -17 15 -20 8 -4 13 -9 11 -13 -2 -3 3 -15 11
-26 14 -18 15 -18 9 -2 -3 11 -9 29 -12 42 -7 27 -34 42 -34 19z"/>
<path d="M12693 12140 c1 -11 5 -20 9 -20 4 0 8 9 8 20 0 11 -4 20 -9 20 -6 0
-9 -9 -8 -20z"/>
<path d="M12725 12080 c-3 -5 -2 -10 4 -10 5 0 13 5 16 10 3 6 2 10 -4 10 -5
0 -13 -4 -16 -10z"/>
<path d="M12745 12040 c-3 -5 1 -10 9 -10 9 0 16 5 16 10 0 6 -4 10 -9 10 -6
0 -13 -4 -16 -10z"/>
<path d="M12340 12160 c0 -5 5 -10 10 -10 6 0 10 5 10 10 0 6 -4 10 -10 10 -5
0 -10 -4 -10 -10z"/>
<path d="M12310 12030 c0 -5 5 -10 10 -10 6 0 10 5 10 10 0 6 -4 10 -10 10 -5
0 -10 -4 -10 -10z"/>
<path d="M12332 11998 c2 -6 10 -14 16 -16 7 -2 10 2 6 12 -7 18 -28 22 -22 4z"/>
<path d="M12381 11997 c2 -1 12 -9 22 -16 15 -12 17 -12 11 3 -3 9 -13 16 -22
16 -8 0 -13 -1 -11 -3z"/>
<path d="M12163 11945 c0 -22 3 -24 39 -21 45 4 56 12 40 28 -9 9 -12 8 -12
-5 0 -23 -12 -21 -33 3 -23 27 -34 25 -34 -5z"/>
<path d="M12270 11955 c0 -8 4 -15 10 -15 5 0 7 7 4 15 -4 8 -8 15 -10 15 -2
0 -4 -7 -4 -15z"/>
<path d="M12332 11864 c-14 -26 -7 -34 29 -34 21 0 27 4 23 15 -4 8 -12 15
-19 15 -7 0 -15 6 -17 12 -3 8 -9 5 -16 -8z"/>
<path d="M12477 11873 c-4 -3 -7 -11 -7 -17 0 -6 5 -5 12 2 6 6 9 14 7 17 -3
3 -9 2 -12 -2z"/>
<path d="M12190 11820 c0 -5 5 -10 10 -10 6 0 10 5 10 10 0 6 -4 10 -10 10 -5
0 -10 -4 -10 -10z"/>
<path d="M12415 11820 c-3 -6 1 -7 9 -4 18 7 21 14 7 14 -6 0 -13 -4 -16 -10z"/>
<path d="M12340 11750 c0 -5 5 -10 10 -10 6 0 10 5 10 10 0 6 -4 10 -10 10 -5
0 -10 -4 -10 -10z"/>
<path d="M12310 11615 c0 -8 7 -15 15 -15 8 0 15 7 15 15 0 8 -7 15 -15 15 -8
0 -15 -7 -15 -15z"/>
<path d="M12134 11578 c-19 -21 -19 -21 1 -13 41 16 73 16 104 1 38 -20 41
-29 4 -15 -29 11 -73 4 -115 -17 -34 -18 -35 -30 -5 -55 33 -27 73 -24 102 9
21 23 24 24 25 8 0 -12 5 -16 16 -12 9 3 18 6 20 6 2 0 4 15 4 34 0 46 -37 76
-95 76 -30 0 -47 -6 -61 -22z m42 -96 c-9 -9 -37 8 -31 18 5 8 11 7 21 -1 8
-6 12 -14 10 -17z"/>
<path d="M12361 11379 c-14 -16 -27 -20 -45 -15 -14 3 -28 2 -31 -4 -3 -5 3
-10 14 -10 11 0 22 -4 25 -9 10 -15 81 15 81 35 0 26 -21 28 -44 3z"/>
<path d="M12409 11315 c-3 -2 -42 -5 -87 -6 -45 -1 -82 -5 -82 -10 0 -10 17
-11 95 -10 47 1 49 1 30 -14 -11 -9 -30 -14 -43 -12 -14 3 -21 0 -19 -7 7 -21
44 -17 73 7 16 13 37 26 47 30 20 7 23 27 4 27 -8 0 -16 -2 -18 -5z"/>
<path d="M9563 11680 c-13 -21 -23 -42 -23 -45 0 -6 62 -45 72 -45 8 0 58 70
58 81 0 8 -67 49 -78 49 -4 0 -17 -18 -29 -40z"/>
<path d="M12105 11679 c-10 -15 3 -25 16 -12 7 7 7 13 1 17 -6 3 -14 1 -17 -5z"/>
<path d="M12060 11670 c0 -5 5 -10 10 -10 6 0 10 5 10 10 0 6 -4 10 -10 10 -5
0 -10 -4 -10 -10z"/>
<path d="M15386 11327 l-29 -24 27 -36 c16 -21 31 -37 35 -37 3 0 19 12 35 26
l28 25 -23 34 c-28 41 -35 42 -73 12z"/>
<path d="M11197 10713 c-4 -3 -7 -13 -7 -21 0 -12 3 -12 15 -2 8 7 15 16 15
21 0 11 -14 12 -23 2z"/>
<path d="M11217 10683 c-12 -12 -7 -22 8 -17 8 4 15 10 15 15 0 11 -14 12 -23
2z"/>
<path d="M11209 10634 c-12 -14 -11 -16 5 -13 11 2 21 10 24 17 5 17 -13 15
-29 -4z"/>
<path d="M11640 10570 c0 -5 5 -10 11 -10 5 0 7 5 4 10 -3 6 -8 10 -11 10 -2
0 -4 -4 -4 -10z"/>
<path d="M11700 10482 c0 -12 3 -12 15 -2 8 7 15 13 15 15 0 1 -7 2 -15 2 -8
0 -15 -7 -15 -15z"/>
<path d="M11500 10440 c0 -5 5 -10 10 -10 6 0 10 5 10 10 0 6 -4 10 -10 10 -5
0 -10 -4 -10 -10z"/>
<path d="M11314 9955 c-21 -24 -22 -24 -39 -5 -10 11 -23 20 -29 20 -6 0 -5
-5 2 -12 18 -18 15 -28 -8 -28 -24 0 -25 -8 -5 -37 13 -18 19 -20 62 -12 77
15 153 62 152 94 0 6 -3 5 -6 -2 -3 -10 -9 -10 -24 0 -15 9 -24 9 -41 -2 -16
-10 -23 -10 -26 -2 -6 17 -15 13 -38 -14z"/>
<path d="M10770 9699 c0 -5 5 -7 10 -4 6 3 10 8 10 11 0 2 -4 4 -10 4 -5 0
-10 -5 -10 -11z"/>
<path d="M10710 9690 c0 -15 31 -33 40 -24 5 5 -1 14 -16 21 -13 6 -24 8 -24
3z"/>
<path d="M10780 9670 c0 -5 4 -10 9 -10 6 0 13 5 16 10 3 6 -1 10 -9 10 -9 0
-16 -4 -16 -10z"/>
<path d="M12210 10970 c0 -5 5 -10 10 -10 6 0 10 5 10 10 0 6 -4 10 -10 10 -5
0 -10 -4 -10 -10z"/>
<path d="M13020 10965 c-15 -18 -5 -35 21 -35 20 0 23 8 13 34 -8 20 -18 20
-34 1z"/>
<path d="M12255 10920 c-3 -5 -2 -10 4 -10 5 0 13 5 16 10 3 6 2 10 -4 10 -5
0 -13 -4 -16 -10z"/>
<path d="M12314 10889 c-8 -14 11 -33 25 -25 6 4 11 11 11 16 0 13 -29 20 -36
9z"/>
<path d="M12723 10835 c0 -22 2 -30 4 -17 2 12 2 30 0 40 -3 9 -5 -1 -4 -23z"/>
<path d="M12155 10819 c-10 -15 3 -25 16 -12 7 7 7 13 1 17 -6 3 -14 1 -17 -5z"/>
<path d="M12500 10820 c0 -5 4 -10 9 -10 6 0 13 5 16 10 3 6 -1 10 -9 10 -9 0
-16 -4 -16 -10z"/>
<path d="M12430 10790 c0 -5 5 -10 10 -10 6 0 10 5 10 10 0 6 -4 10 -10 10 -5
0 -10 -4 -10 -10z"/>
<path d="M12247 10763 c-4 -3 -7 -11 -7 -17 0 -6 5 -5 12 2 6 6 9 14 7 17 -3
3 -9 2 -12 -2z"/>
<path d="M12317 10758 c-7 -21 20 -55 34 -41 6 6 9 19 7 29 -4 22 -33 31 -41
12z"/>
<path d="M13167 10764 c-4 -4 -7 -18 -7 -31 0 -18 5 -24 18 -21 11 2 16 11 14
23 -4 25 -16 38 -25 29z"/>
<path d="M12920 10685 c0 -8 2 -15 4 -15 2 0 6 7 10 15 3 8 1 15 -4 15 -6 0
-10 -7 -10 -15z"/>
<path d="M12666 10651 c-4 -5 -2 -12 4 -16 16 -10 2 -25 -16 -18 -13 5 -15 1
-10 -14 5 -15 0 -23 -18 -31 -23 -10 -36 -7 -36 10 0 4 10 8 22 8 21 0 21 0 2
15 -28 21 -32 19 -39 -22 -4 -21 -9 -46 -12 -55 -2 -10 0 -18 6 -18 5 0 11 7
13 16 2 11 15 17 40 19 33 2 36 0 27 -16 -5 -11 -15 -18 -21 -16 -6 1 -13 -4
-15 -10 -3 -9 7 -13 31 -13 20 0 36 4 36 9 0 5 9 11 20 14 24 6 27 27 4 27
-16 0 -16 13 -1 104 3 13 -30 19 -37 7z"/>
<path d="M12515 10640 c-3 -5 1 -10 10 -10 9 0 13 5 10 10 -3 6 -8 10 -10 10
-2 0 -7 -4 -10 -10z"/>
<path d="M12340 10580 c0 -5 5 -10 10 -10 6 0 10 5 10 10 0 6 -4 10 -10 10 -5
0 -10 -4 -10 -10z"/>
<path d="M12265 10560 c-3 -5 1 -10 10 -10 9 0 13 5 10 10 -3 6 -8 10 -10 10
-2 0 -7 -4 -10 -10z"/>
<path d="M12420 10540 c0 -5 5 -10 10 -10 6 0 10 5 10 10 0 6 -4 10 -10 10 -5
0 -10 -4 -10 -10z"/>
<path d="M12487 10499 c7 -7 15 -10 18 -7 3 3 -2 9 -12 12 -14 6 -15 5 -6 -5z"/>
<path d="M11970 10479 c0 -5 5 -7 10 -4 6 3 10 8 10 11 0 2 -4 4 -10 4 -5 0
-10 -5 -10 -11z"/>
<path d="M12210 10479 c0 -5 5 -7 10 -4 6 3 10 8 10 11 0 2 -4 4 -10 4 -5 0
-10 -5 -10 -11z"/>
<path d="M12350 10400 c0 -5 5 -10 10 -10 6 0 10 5 10 10 0 6 -4 10 -10 10 -5
0 -10 -4 -10 -10z"/>
<path d="M12138 10339 c6 -7 12 -21 12 -31 0 -10 6 -18 14 -18 22 0 4 54 -20
58 -15 3 -17 1 -6 -9z"/>
<path d="M12190 10340 c0 -5 5 -10 10 -10 6 0 10 5 10 10 0 6 -4 10 -10 10 -5
0 -10 -4 -10 -10z"/>
<path d="M11900 10281 c0 -11 26 -22 34 -14 12 12 5 23 -14 23 -11 0 -20 -4
-20 -9z"/>
<path d="M15497 10933 c-20 -14 -37 -30 -37 -35 0 -5 12 -25 26 -44 l26 -34
39 31 c41 32 41 37 2 87 l-18 22 -38 -27z"/>
<path d="M13825 10930 c-11 -5 -42 -18 -69 -30 -46 -19 -48 -21 -32 -38 9 -10
13 -22 10 -25 -4 -4 -1 -13 5 -21 11 -13 22 -10 84 16 81 34 107 53 107 78 0
29 -59 40 -105 20z"/>
<path d="M13480 10761 c0 -13 22 -29 63 -46 51 -21 54 -4 4 28 -42 27 -67 34
-67 18z"/>
<path d="M12920 10204 c0 -8 5 -12 10 -9 6 3 10 10 10 16 0 5 -4 9 -10 9 -5 0
-10 -7 -10 -16z"/>
<path d="M12785 10059 c-4 -6 -5 -13 -2 -16 7 -7 27 6 27 18 0 12 -17 12 -25
-2z"/>
<path d="M12900 9955 c0 -8 2 -15 4 -15 2 0 11 -3 20 -6 12 -4 16 0 16 15 0
14 -6 21 -20 21 -11 0 -20 -7 -20 -15z"/>
<path d="M13265 9790 c4 -6 11 -8 16 -5 14 9 11 15 -7 15 -8 0 -12 -5 -9 -10z"/>
<path d="M12745 9737 c-22 -24 -51 -51 -65 -60 -19 -14 -16 -13 16 2 23 11 52
37 67 60 15 23 26 41 25 41 -2 0 -21 -19 -43 -43z"/>
<path d="M12715 9760 c3 -5 8 -10 11 -10 2 0 4 5 4 10 0 6 -5 10 -11 10 -5 0
-7 -4 -4 -10z"/>
<path d="M12640 9725 c0 -18 19 -40 26 -32 4 4 0 15 -9 24 -9 10 -17 13 -17 8z"/>
<path d="M12815 9690 c3 -5 8 -10 11 -10 2 0 4 5 4 10 0 6 -5 10 -11 10 -5 0
-7 -4 -4 -10z"/>
<path d="M13060 9669 c0 -5 5 -7 10 -4 6 3 10 8 10 11 0 2 -4 4 -10 4 -5 0
-10 -5 -10 -11z"/>
<path d="M11920 9610 c0 -5 4 -10 9 -10 6 0 13 5 16 10 3 6 -1 10 -9 10 -9 0
-16 -4 -16 -10z"/>
<path d="M12610 9601 c0 -10 30 -24 37 -17 3 2 -5 9 -16 16 -12 6 -21 7 -21 1z"/>
<path d="M12815 9539 c-10 -15 3 -25 16 -12 7 7 7 13 1 17 -6 3 -14 1 -17 -5z"/>
<path d="M11737 9529 c15 -15 83 -48 83 -40 0 4 -21 17 -46 29 -26 11 -43 17
-37 11z"/>
<path d="M11885 9530 c3 -5 8 -10 11 -10 2 0 4 5 4 10 0 6 -5 10 -11 10 -5 0
-7 -4 -4 -10z"/>
<path d="M12096 9486 c3 -9 11 -16 16 -16 13 0 5 23 -10 28 -7 2 -10 -2 -6
-12z"/>
<path d="M11535 9470 c4 -6 11 -8 16 -5 14 9 11 15 -7 15 -8 0 -12 -5 -9 -10z"/>
<path d="M11942 9455 c-9 -20 -9 -25 2 -25 8 0 16 -9 19 -20 7 -28 24 -25 31
6 5 19 1 31 -15 45 -12 10 -23 19 -24 19 -1 0 -7 -11 -13 -25z"/>
<path d="M11790 9440 c0 -5 5 -10 10 -10 6 0 10 5 10 10 0 6 -4 10 -10 10 -5
0 -10 -4 -10 -10z"/>
<path d="M13055 9440 c-3 -5 -2 -10 4 -10 5 0 13 5 16 10 3 6 2 10 -4 10 -5 0
-13 -4 -16 -10z"/>
<path d="M12637 9403 c-12 -11 -8 -23 8 -23 8 0 15 7 15 15 0 16 -12 20 -23 8z"/>
<path d="M13362 9349 c-24 -34 -41 -64 -38 -66 4 -5 54 64 75 105 21 39 6 24
-37 -39z"/>
<path d="M12775 9370 c-3 -5 -1 -10 4 -10 6 0 11 5 11 10 0 6 -2 10 -4 10 -3
0 -8 -4 -11 -10z"/>
<path d="M13300 9365 c-7 -9 -10 -18 -7 -22 8 -7 37 15 37 28 0 14 -16 11 -30
-6z"/>
<path d="M13421 9373 c-1 -7 -34 -62 -75 -121 -40 -60 -77 -119 -81 -132 -11
-35 -178 -195 -224 -216 -35 -15 -54 -34 -35 -34 14 0 104 57 149 96 90 75
286 371 271 407 -3 9 -5 9 -5 0z"/>
<path d="M12020 9340 c0 -5 5 -10 10 -10 6 0 10 5 10 10 0 6 -4 10 -10 10 -5
0 -10 -4 -10 -10z"/>
<path d="M11450 9290 c0 -5 7 -10 15 -10 8 0 15 5 15 10 0 6 -7 10 -15 10 -8
0 -15 -4 -15 -10z"/>
<path d="M13190 9270 c0 -22 20 -26 38 -8 19 19 14 28 -13 28 -18 0 -25 -5
-25 -20z"/>
<path d="M11660 9266 c0 -9 7 -12 20 -9 11 3 17 9 14 14 -8 14 -34 10 -34 -5z"/>
<path d="M11905 9200 c3 -5 10 -10 16 -10 5 0 9 5 9 10 0 6 -7 10 -16 10 -8 0
-12 -4 -9 -10z"/>
<path d="M12945 9201 c-3 -5 -1 -12 5 -16 12 -7 30 2 30 16 0 12 -27 12 -35 0z"/>
<path d="M13185 9164 l-30 -26 33 22 c17 12 32 23 32 26 0 7 -4 5 -35 -22z"/>
<path d="M13956 9157 c-12 -9 -17 -23 -14 -42 l3 -30 23 38 c12 21 22 40 22
43 0 8 -16 4 -34 -9z"/>
<path d="M12726 9151 c-4 -5 -2 -12 3 -15 5 -4 12 -2 15 3 4 5 2 12 -3 15 -5
4 -12 2 -15 -3z"/>
<path d="M11530 9131 c0 -11 31 -24 39 -16 3 3 -1 10 -9 15 -19 12 -30 12 -30
1z"/>
<path d="M12090 9090 c0 -5 7 -10 15 -10 8 0 15 5 15 10 0 6 -7 10 -15 10 -8
0 -15 -4 -15 -10z"/>
<path d="M13091 9054 c-7 -8 -11 -18 -8 -21 9 -9 48 8 44 20 -5 17 -21 18 -36
1z"/>
<path d="M11773 9048 c2 -7 10 -13 17 -13 7 0 15 6 18 13 2 7 -5 12 -18 12
-13 0 -20 -5 -17 -12z"/>
<path d="M12600 8950 c0 -5 7 -10 15 -10 8 0 15 5 15 10 0 6 -7 10 -15 10 -8
0 -15 -4 -15 -10z"/>
<path d="M12855 8939 c-4 -6 -5 -13 -2 -16 7 -7 27 6 27 18 0 12 -17 12 -25
-2z"/>
<path d="M11910 8920 c-24 -8 -24 -8 5 -9 17 0 37 4 45 9 12 8 11 10 -5 9 -11
-1 -31 -5 -45 -9z"/>
<path d="M12220 8920 c0 -5 7 -10 15 -10 8 0 15 5 15 10 0 6 -7 10 -15 10 -8
0 -15 -4 -15 -10z"/>
<path d="M13125 8890 c-3 -5 -2 -10 4 -10 5 0 13 5 16 10 3 6 2 10 -4 10 -5 0
-13 -4 -16 -10z"/>
<path d="M13394 8863 c23 -65 37 -137 32 -168 -14 -86 -36 -158 -65 -208 -23
-42 -25 -47 -12 -47 5 0 25 24 46 54 27 40 50 60 84 75 25 11 55 27 66 36 11
9 -9 2 -44 -15 l-64 -32 8 49 c14 95 8 192 -17 241 -30 59 -53 69 -34 15z"/>
<path d="M11970 8875 c0 -18 24 -30 39 -21 16 10 1 36 -20 36 -10 0 -19 -7
-19 -15z"/>
<path d="M13178 8869 c-31 -12 -43 -36 -27 -55 15 -18 29 -18 29 1 0 8 9 15
20 15 11 0 20 6 20 14 0 9 7 12 18 9 10 -2 24 3 31 11 12 14 9 16 -25 15 -22
0 -51 -5 -66 -10z"/>
<path d="M13010 8804 c0 -9 5 -14 12 -12 18 6 21 28 4 28 -9 0 -16 -7 -16 -16z"/>
<path d="M13057 8795 c-10 -14 -41 -38 -68 -54 -45 -25 -49 -30 -35 -43 8 -9
32 -19 52 -23 31 -5 43 -2 81 25 33 24 60 34 111 40 75 10 82 8 82 -23 1 -31
15 -3 24 46 l7 38 -28 -15 c-53 -27 -98 -30 -119 -8 -22 23 -57 42 -76 42 -7
0 -21 -12 -31 -25z m43 -26 c0 -15 -41 -48 -60 -49 -9 0 -26 -7 -38 -16 -12
-8 -27 -12 -33 -8 -7 4 9 17 37 31 27 13 56 31 64 39 17 17 30 18 30 3z"/>
<path d="M12720 8750 c0 -5 9 -10 21 -10 11 0 17 5 14 10 -3 6 -13 10 -21 10
-8 0 -14 -4 -14 -10z"/>
<path d="M12483 8738 c19 -53 19 -57 -8 -52 -26 4 -30 -2 -19 -31 6 -15 8 -15
25 0 22 21 59 11 59 -16 0 -10 -13 -33 -29 -50 -27 -28 -30 -29 -39 -12 -6 10
-14 17 -19 16 -4 -2 -8 5 -9 15 -2 29 -16 62 -24 57 -10 -6 -26 14 -33 40 -4
11 -4 -5 -1 -37 5 -51 3 -57 -16 -63 -12 -4 -27 -1 -35 5 -10 9 -15 9 -15 2 0
-19 70 -82 90 -82 11 0 20 -4 20 -10 0 -5 -7 -10 -15 -10 -25 0 -17 -14 23
-40 20 -13 43 -29 51 -35 11 -7 10 -2 -2 22 -18 34 -22 63 -9 63 4 0 45 -11
92 -23 104 -29 133 -23 290 62 8 4 37 19 63 32 55 28 115 73 82 62 -11 -3 -28
-13 -37 -21 -11 -9 -27 -12 -42 -8 -28 7 -66 -11 -66 -31 0 -7 -11 -15 -24
-19 -27 -7 -125 0 -171 11 -47 12 -110 62 -145 116 -30 46 -48 64 -37 37z m77
-177 c0 -21 -13 -41 -26 -41 -17 0 -17 5 -2 30 13 21 28 27 28 11z"/>
<path d="M13703 8596 c-45 -17 -86 -36 -90 -40 -5 -5 1 -6 12 -2 11 4 43 13
71 21 51 13 114 41 114 50 0 10 -26 2 -107 -29z"/>
<path d="M13145 8580 c-3 -5 -2 -10 4 -10 5 0 13 5 16 10 3 6 2 10 -4 10 -5 0
-13 -4 -16 -10z"/>
<path d="M12080 8576 c0 -2 8 -10 18 -17 15 -13 16 -12 3 4 -13 16 -21 21 -21
13z"/>
<path d="M13100 8560 c-8 -5 -10 -10 -5 -10 6 0 17 5 25 10 8 5 11 10 5 10 -5
0 -17 -5 -25 -10z"/>
<path d="M12139 8530 c13 -11 28 -20 33 -20 6 0 -1 9 -15 20 -33 26 -49 26
-18 0z"/>
<path d="M12845 8529 l-50 -19 50 6 c28 3 57 12 65 20 20 20 -1 18 -65 -7z"/>
<path d="M13515 8540 c-29 -7 -29 -8 10 -9 22 0 47 4 55 9 12 8 10 9 -10 9
-14 -1 -38 -5 -55 -9z"/>
<path d="M12050 8516 c0 -10 28 -13 41 -5 10 6 7 9 -13 9 -16 0 -28 -2 -28 -4z"/>
<path d="M12350 8510 c0 -5 5 -10 10 -10 6 0 10 5 10 10 0 6 -4 10 -10 10 -5
0 -10 -4 -10 -10z"/>
<path d="M13315 8410 c-3 -5 -1 -10 4 -10 6 0 11 5 11 10 0 6 -2 10 -4 10 -3
0 -8 -4 -11 -10z"/>
<path d="M15777 10661 c-41 -33 -78 -64 -81 -70 -4 -5 7 -25 23 -43 l29 -32
85 64 c48 36 86 72 86 80 0 21 -34 60 -52 60 -9 0 -49 -27 -90 -59z"/>
<path d="M13797 10373 c-4 -3 -7 -11 -7 -17 0 -6 5 -5 12 2 6 6 9 14 7 17 -3
3 -9 2 -12 -2z"/>
<path d="M12475 9987 c-4 -10 -5 -21 -1 -24 10 -10 18 4 13 24 -4 17 -4 17
-12 0z"/>
<path d="M12410 9970 c0 -5 6 -10 14 -10 8 0 16 -6 19 -12 2 -7 8 -10 12 -5 5
4 0 14 -11 22 -23 17 -34 19 -34 5z"/>
<path d="M12463 9920 c-9 -13 -9 -21 -2 -26 13 -7 15 -5 23 24 9 27 -5 29 -21
2z"/>
<path d="M12337 9923 c-4 -3 -7 -15 -7 -25 0 -10 -6 -18 -14 -18 -14 0 -30
-29 -21 -38 3 -3 5 0 5 7 0 7 4 10 10 6 5 -3 19 0 32 6 13 7 29 15 37 19 24
11 25 29 2 23 -15 -4 -21 -1 -21 11 0 16 -12 21 -23 9z"/>
<path d="M12290 9810 c0 -5 5 -10 11 -10 5 0 7 5 4 10 -3 6 -8 10 -11 10 -2 0
-4 -4 -4 -10z"/>
<path d="M12336 9792 c-4 -7 -4 -16 -1 -22 4 -6 -6 -10 -23 -10 -18 0 -32 6
-36 16 -3 8 -10 13 -15 9 -6 -3 -3 -18 7 -35 18 -32 32 -39 32 -15 0 11 9 14
31 13 36 -3 45 10 26 36 -10 13 -16 15 -21 8z"/>
<path d="M12305 9719 c-4 -6 -5 -13 -2 -16 7 -7 27 6 27 18 0 12 -17 12 -25
-2z"/>
<path d="M12330 9680 c0 -13 7 -20 20 -20 18 0 19 3 10 20 -6 11 -15 20 -20
20 -6 0 -10 -9 -10 -20z"/>
<path d="M14200 9650 c-9 -6 -10 -10 -3 -10 6 0 15 5 18 10 8 12 4 12 -15 0z"/>
<path d="M13977 9643 c-3 -3 1 -12 9 -20 8 -9 18 -13 21 -10 3 3 -1 13 -10 21
-8 8 -17 12 -20 9z"/>
<path d="M14248 9643 c7 -3 16 -2 19 1 4 3 -2 6 -13 5 -11 0 -14 -3 -6 -6z"/>
<path d="M14185 9615 c-44 -27 -40 -32 12 -13 18 7 33 18 33 25 0 17 2 17 -45
-12z"/>
<path d="M14050 9560 c-9 -6 -10 -10 -3 -10 6 0 15 5 18 10 8 12 4 12 -15 0z"/>
<path d="M13840 9535 c0 -9 61 -36 73 -32 7 2 -2 11 -20 20 -32 17 -53 22 -53
12z"/>
<path d="M17650 9901 c-30 -8 -50 -54 -34 -78 18 -29 41 -38 71 -27 24 8 28
15 28 48 0 45 -25 67 -65 57z"/>
<path d="M18246 9889 c-22 -17 -26 -27 -21 -48 12 -52 71 -69 99 -29 43 60
-21 122 -78 77z"/>
<path d="M17800 9850 l0 -50 170 0 170 0 0 50 0 50 -170 0 -170 0 0 -50z"/>
<path d="M10810 7959 c-661 -13 -1589 -48 -2105 -79 -542 -33 -612 -38 -1035
-70 -1243 -97 -2515 -264 -2848 -375 -111 -38 -212 -89 -247 -125 l-30 -31
108 -212 c295 -585 497 -977 548 -1063 l19 -31 67 19 c220 61 821 163 1368
232 2151 271 4709 365 7410 271 1769 -62 3599 -220 4810 -415 174 -28 436 -80
503 -99 28 -8 34 -7 46 12 25 38 274 520 471 910 l190 375 -30 32 c-39 41
-166 101 -280 134 -393 110 -1725 271 -3030 366 -154 11 -307 22 -340 25 -273
24 -1551 86 -2165 105 -967 30 -2497 38 -3430 19z m628 -601 l2 -388 -49 0
c-42 0 -49 3 -55 23 -8 31 -7 742 1 751 4 4 28 6 53 4 l45 -3 3 -387z m-194
330 c3 -29 6 -202 6 -384 l0 -331 -42 -6 c-24 -3 -47 -2 -52 3 -6 6 -12 176
-14 390 l-5 380 50 0 50 0 7 -52z m2257 28 c2 -3 3 -25 1 -50 l-4 -46 -39 0
-39 0 0 -85 0 -85 30 0 c29 0 30 -1 30 -50 0 -48 -1 -50 -29 -50 -37 0 -41
-20 -41 -200 0 -76 -3 -152 -6 -169 -6 -30 -8 -31 -57 -31 l-50 0 4 203 4 202
-23 3 c-21 3 -23 8 -20 50 2 39 7 48 24 50 18 3 22 12 28 64 3 34 6 83 6 110
0 81 8 88 99 88 43 0 80 -2 82 -4z m-3586 -71 l0 -50 -92 -5 c-50 -3 -94 -7
-96 -10 -3 -3 -2 -52 1 -109 l5 -103 84 7 84 7 -3 -59 -3 -58 -78 -3 -78 -3 3
-112 3 -112 98 4 97 3 0 -55 0 -55 -42 -6 c-55 -7 -256 -11 -262 -5 -5 4 -36
653 -36 736 0 31 1 32 53 36 28 2 99 3 157 3 l105 -1 0 -50z m4799 18 l107 -6
-3 -56 c-3 -49 -5 -56 -23 -54 -11 1 -54 3 -95 4 l-75 2 -7 -99 c-3 -54 -4
-102 -1 -106 2 -5 23 -8 46 -8 23 0 59 -3 80 -6 l38 -7 -3 -51 -3 -51 -82 3
c-45 2 -83 -1 -86 -5 -3 -5 -7 -55 -8 -113 l-3 -105 87 -7 c47 -3 90 -8 94
-11 4 -3 6 -28 4 -57 l-3 -52 -107 6 c-58 4 -128 9 -155 13 l-49 5 6 92 c4 50
11 199 17 331 6 132 13 264 16 293 l5 52 48 0 c26 0 96 -3 155 -7z m-6189
-177 c4 -30 4 -59 0 -65 -3 -6 -28 -11 -56 -11 -47 0 -49 1 -49 29 0 16 -3 42
-6 59 -7 33 2 38 73 41 31 1 32 0 38 -53z m3286 -25 c22 -17 24 -29 27 -115 5
-138 -1 -146 -118 -146 l-90 0 0 -65 0 -65 50 0 50 0 0 41 0 40 53 -3 52 -3 0
-66 c0 -102 -9 -109 -154 -109 -64 0 -121 4 -127 8 -29 19 -34 56 -34 252 0
200 0 201 25 225 23 24 31 25 133 25 93 0 113 -3 133 -19z m207 3 c8 -15 15
-15 80 1 67 16 73 16 97 1 l25 -16 0 -240 0 -240 -50 0 -50 0 0 200 c0 142 -3
200 -11 200 -7 0 -29 -5 -50 -12 l-39 -11 -2 -186 -3 -186 -52 -3 -53 -3 0
249 c0 137 3 252 7 255 14 14 92 7 101 -9z m585 -12 c13 -12 17 -31 17 -89 l0
-74 -52 3 c-51 3 -53 4 -54 33 -1 17 -2 36 -3 43 -1 9 -15 12 -48 10 l-48 -3
-3 -151 -3 -152 46 -4 c26 -2 48 -1 51 1 2 2 4 24 4 48 l0 44 53 -3 52 -3 0
-76 c0 -108 -1 -109 -149 -109 -90 0 -127 4 -142 14 -18 14 -19 26 -16 228 2
117 6 221 8 231 9 28 38 34 158 29 81 -3 116 -8 129 -20z m-1554 -8 c18 -23
21 -41 21 -124 0 -124 -4 -128 -120 -132 l-85 -3 -2 -30 c-2 -16 -1 -45 2 -62
6 -32 7 -33 56 -33 l51 0 -4 38 -3 37 53 3 52 3 0 -75 c0 -102 -7 -106 -161
-106 -98 0 -118 3 -131 18 -12 13 -17 60 -22 227 -6 181 -5 213 9 232 17 24
42 28 182 31 77 2 83 1 102 -24z m1940 2 c19 -17 21 -30 21 -115 0 -135 -5
-141 -121 -141 l-89 0 0 -65 0 -65 50 0 50 0 0 40 0 40 50 0 50 0 0 -73 c0
-106 -5 -110 -160 -105 -108 3 -123 5 -137 23 -12 17 -14 56 -11 231 4 271 -5
257 159 252 98 -2 120 -6 138 -22z m-2329 -6 c16 -16 20 -33 20 -91 l0 -70
-52 3 -53 3 -3 38 c-3 37 -4 37 -47 37 -24 0 -46 -3 -48 -8 -3 -4 -3 -73 0
-155 l6 -147 48 0 48 0 3 48 3 47 50 0 50 0 3 -73 c3 -66 1 -74 -22 -97 -24
-24 -31 -25 -136 -25 -61 0 -119 4 -129 10 -10 5 -21 23 -24 39 -12 57 -9 423
3 435 12 12 91 22 193 25 55 1 71 -3 87 -19z m-358 5 c3 -3 -14 -55 -38 -115
-24 -61 -44 -119 -44 -130 0 -11 25 -70 55 -130 30 -60 55 -114 55 -120 0 -5
-22 -10 -50 -10 l-50 0 -36 71 c-19 39 -38 68 -42 64 -4 -3 -19 -37 -33 -73
l-27 -67 -51 -3 c-28 -2 -51 1 -51 6 0 5 23 65 51 133 l51 123 -61 117 c-33
64 -58 119 -54 122 3 4 27 7 53 7 l46 0 32 -65 c17 -36 36 -65 40 -65 5 0 17
27 27 60 10 34 26 65 34 70 17 10 84 13 93 5z m3534 -29 c11 -16 13 -51 9
-175 -8 -234 -13 -276 -36 -296 -16 -16 -33 -17 -136 -11 -162 10 -154 -2
-148 229 3 100 8 197 10 215 7 61 15 64 158 60 114 -3 130 -5 143 -22z m202
-2 c8 -14 16 -15 61 -5 124 26 143 11 139 -110 l-3 -84 -50 0 -50 0 -3 53 -3
53 -32 -6 c-69 -14 -64 1 -72 -198 -4 -100 -9 -185 -12 -189 -6 -11 -75 -10
-91 1 -11 6 -11 48 -3 222 6 118 11 229 11 247 0 32 0 32 50 32 35 0 52 -5 58
-16z m-4704 -176 c4 -90 11 -234 16 -322 10 -170 7 -190 -35 -206 -12 -5 -69
-10 -125 -12 -119 -4 -130 4 -130 84 l0 48 50 0 c38 0 50 -4 50 -15 0 -11 12
-15 46 -15 l45 0 -3 43 -3 42 -73 2 c-87 2 -117 18 -131 70 -5 21 -13 115 -17
209 l-7 170 32 27 c34 29 61 32 126 17 31 -7 41 -6 48 6 5 9 25 14 56 14 l48
0 7 -162z m-2540 81 c4 -34 6 -62 4 -64 -2 -2 -25 -5 -53 -6 l-50 -4 -7 50
c-11 74 -11 74 83 83 13 2 18 -11 23 -59z m2115 43 c21 -16 23 -32 35 -247 8
-127 12 -233 9 -237 -2 -5 -26 -8 -54 -8 -40 0 -49 3 -49 18 0 35 -23 377 -25
380 -2 2 -25 -6 -50 -17 l-48 -21 7 -78 c3 -42 9 -125 12 -183 l7 -106 -49 -6
c-28 -3 -52 -1 -55 5 -6 9 -10 68 -25 371 l-7 127 51 0 c30 0 52 -5 54 -12 3
-9 23 -6 74 9 86 27 87 27 113 5z m6055 12 c9 -3 16 -13 16 -21 0 -12 7 -14
28 -9 15 3 52 9 83 12 48 6 59 4 75 -14 18 -19 21 -19 95 -4 71 15 78 15 103
-1 25 -17 26 -21 25 -105 0 -48 -6 -154 -12 -237 l-12 -150 -44 -3 c-24 -2
-48 1 -53 6 -8 8 5 300 17 375 5 29 5 29 -38 22 -23 -4 -47 -12 -53 -18 -7 -7
-16 -86 -23 -187 -6 -96 -15 -177 -19 -181 -4 -3 -27 -4 -51 -1 l-44 4 7 152
c4 83 9 173 13 200 l6 49 -48 -6 c-27 -4 -51 -9 -53 -12 -3 -3 -9 -83 -14
-177 -5 -95 -11 -179 -13 -185 -5 -16 -91 -18 -100 -2 -6 9 7 277 21 437 l6
62 33 0 c18 0 40 -3 49 -6z m-6430 -66 c11 -88 29 -437 23 -452 -5 -11 -19
-16 -51 -16 l-44 0 -5 43 c-4 23 -11 134 -18 245 -13 227 -15 222 53 222 36 0
37 -1 42 -42z m-2722 -24 c4 -31 3 -51 -4 -55 -6 -4 -38 -10 -72 -13 -114 -13
-109 -9 -102 -85 4 -36 10 -83 13 -104 6 -38 7 -38 42 -33 20 3 57 8 82 12
l47 6 7 -52 c4 -28 5 -53 3 -55 -2 -3 -39 -10 -81 -16 -75 -11 -77 -12 -77
-39 0 -33 20 -182 25 -191 3 -3 44 0 92 7 48 7 91 10 94 6 4 -4 9 -28 12 -54
3 -38 1 -48 -12 -52 -47 -13 -283 -38 -290 -30 -6 7 -86 629 -94 734 -2 25 0
25 143 46 80 12 149 21 155 20 5 -2 13 -25 17 -52z m9744 46 c24 0 34 -5 34
-15 0 -13 7 -15 34 -9 72 13 135 10 153 -8 16 -16 16 -30 4 -205 -18 -266 -22
-273 -146 -273 l-82 0 -6 -85 c-3 -47 -8 -89 -11 -93 -2 -4 -25 -6 -50 -4 -46
4 -46 4 -46 41 0 51 41 633 46 650 2 7 11 10 20 7 9 -3 31 -6 50 -6z m-7194
-17 c17 -20 35 -168 21 -176 -4 -3 -28 -7 -53 -8 l-45 -4 -3 40 c-5 65 -5 66
-58 48 l-47 -16 7 -86 c4 -47 9 -132 13 -188 l6 -101 -47 -7 c-26 -4 -49 -5
-52 -2 -3 3 -14 115 -24 248 -15 188 -16 245 -7 251 7 4 31 8 55 8 31 0 42 -4
42 -15 0 -18 -5 -19 55 5 64 24 117 26 137 3z m-388 -31 c11 -13 18 -48 24
-117 10 -128 7 -132 -108 -143 l-85 -7 3 -60 c2 -33 7 -63 10 -66 4 -3 26 -4
50 -1 41 4 42 5 42 42 0 42 11 50 65 50 28 0 33 -4 39 -31 3 -17 6 -50 6 -74
0 -64 -17 -74 -154 -87 -161 -15 -151 -28 -172 229 -9 111 -14 213 -10 226 7
31 24 38 106 47 122 14 165 12 184 -8z m8090 2 c117 -9 131 -21 123 -108 -4
-33 -12 -128 -18 -211 -11 -135 -15 -152 -36 -173 -13 -13 -31 -21 -41 -18 -9
2 -61 7 -114 11 -142 10 -135 -4 -117 262 14 206 16 216 39 235 15 12 33 17
49 14 14 -3 66 -8 115 -12z m-8485 -31 c17 -15 23 -36 31 -116 14 -138 13
-140 -117 -152 l-73 -7 0 -52 c0 -69 8 -78 60 -74 44 3 44 3 44 43 1 40 1 40
46 46 25 4 48 4 52 0 4 -3 8 -37 10 -75 3 -92 -7 -99 -149 -114 -91 -9 -112
-9 -130 4 -28 18 -29 20 -48 251 -12 142 -13 197 -5 213 6 11 12 20 13 21 2 0
208 25 233 28 7 0 21 -7 33 -16z m8759 2 c2 -2 10 -70 17 -150 8 -81 15 -149
18 -151 2 -2 24 62 49 143 l45 148 39 -3 c21 -2 40 -5 41 -6 2 -2 11 -71 20
-154 9 -84 19 -152 22 -152 3 0 21 57 40 128 48 183 42 171 93 165 24 -3 46
-8 50 -12 6 -5 -134 -477 -144 -485 -2 -2 -25 0 -53 3 l-49 6 -18 129 c-10 71
-19 131 -22 133 -2 3 -22 -51 -43 -119 l-39 -123 -45 -3 c-24 -1 -49 1 -55 5
-9 7 -65 439 -64 497 0 16 5 17 48 11 26 -4 49 -8 50 -10z m-9153 -39 c17 -12
22 -44 41 -247 12 -129 21 -235 19 -237 -7 -8 -105 -13 -105 -6 0 23 -32 370
-35 381 -3 9 -13 9 -42 -3 -21 -9 -42 -19 -46 -23 -4 -5 -1 -88 8 -186 10
-109 13 -181 7 -187 -5 -5 -29 -8 -53 -6 l-44 3 -16 170 c-9 94 -19 204 -24
246 l-7 76 48 7 c37 5 52 3 60 -8 9 -13 19 -12 75 9 76 28 89 30 114 11z
m9785 -22 c138 -12 145 -21 129 -164 -14 -123 -17 -125 -134 -112 -44 5 -81 8
-82 7 -2 -1 -4 -31 -5 -66 l-3 -64 48 -3 47 -3 0 36 0 36 53 -3 52 -3 -3 -55
c-5 -121 -12 -125 -160 -109 -59 6 -117 18 -129 25 -29 18 -29 38 -4 278 17
163 21 182 41 198 15 12 33 17 49 14 14 -3 60 -8 101 -12z m-10165 -16 c6 -17
45 -422 45 -465 l0 -33 -50 0 c-27 0 -50 1 -50 3 0 1 -11 110 -25 242 -14 132
-25 243 -25 247 0 4 17 9 38 11 20 2 43 4 50 5 7 1 15 -4 17 -10z m-191 -16
c2 -4 19 -153 37 -330 38 -381 44 -354 -84 -371 -121 -17 -153 -15 -171 11
-19 27 -22 108 -3 108 6 0 29 3 50 6 30 5 37 3 37 -9 0 -23 15 -29 55 -21 37
7 42 21 29 71 -6 22 -10 23 -75 17 -74 -7 -107 5 -129 47 -18 32 -51 364 -40
393 16 44 53 60 125 53 49 -5 64 -3 69 8 2 7 22 16 43 18 21 2 41 4 45 5 4 1
9 -1 12 -6z m10647 -2 c18 0 28 -6 32 -19 4 -17 9 -18 43 -10 61 14 115 11
136 -8 19 -17 23 -63 12 -147 -6 -44 -8 -46 -38 -46 -69 0 -75 6 -69 65 l6 53
-48 -9 c-27 -5 -50 -10 -51 -12 -2 -2 -10 -70 -19 -153 -23 -229 -18 -214 -71
-214 -31 0 -46 5 -50 15 -6 14 30 419 42 474 4 18 10 22 27 17 12 -3 34 -6 48
-6z m373 -46 c9 -3 16 -13 16 -21 0 -12 10 -13 58 -7 81 11 101 9 126 -15 22
-20 27 -21 92 -10 82 13 120 3 130 -36 3 -14 -6 -121 -20 -238 -14 -116 -26
-216 -26 -221 0 -7 -99 -2 -105 6 -1 2 8 91 21 198 13 107 21 196 19 198 -2 3
-25 1 -49 -2 -54 -8 -49 6 -71 -201 -9 -82 -18 -157 -21 -165 -5 -19 -93 -15
-100 4 -3 7 4 87 16 178 28 233 29 221 -22 213 -24 -4 -46 -10 -50 -14 -3 -3
-16 -87 -28 -186 -11 -98 -22 -180 -24 -182 -1 -2 -24 0 -49 3 -57 8 -55 -6
-27 249 30 273 26 255 65 255 18 0 40 -3 49 -6z m-11421 -26 c16 -25 64 -437
54 -461 -3 -9 -23 -16 -47 -19 -35 -3 -43 0 -50 17 -4 11 -15 100 -25 198 -10
97 -23 177 -27 177 -12 0 -88 -39 -88 -45 0 -3 9 -84 20 -182 11 -97 19 -177
17 -179 -1 -1 -25 -6 -53 -9 l-50 -7 -28 247 c-15 135 -26 248 -24 251 3 2 26
7 51 10 37 5 48 3 52 -9 6 -13 14 -12 63 9 75 30 117 31 135 2z m12850 -38
c18 0 19 -4 13 -69 l-7 -70 35 -7 c38 -7 41 -15 30 -73 -6 -30 -8 -31 -45 -25
-25 4 -39 3 -39 -4 0 -6 -9 -72 -20 -147 -11 -75 -18 -141 -14 -146 3 -5 18
-9 35 -9 27 0 29 -3 29 -37 0 -58 -9 -66 -66 -58 -71 9 -103 24 -110 51 -3 13
3 92 15 176 26 190 26 194 1 201 -14 4 -20 14 -20 35 0 45 10 62 35 62 24 0
35 22 35 72 0 48 10 61 43 54 16 -3 39 -6 50 -6z m-760 -25 c56 -9 110 -18
120 -21 32 -10 39 -39 27 -127 -19 -152 -18 -151 -135 -132 -44 7 -83 10 -87
6 -4 -3 -8 -33 -10 -66 l-3 -60 48 -3 c43 -3 47 -1 47 20 0 42 13 51 65 44
l47 -8 -6 -61 c-9 -77 -27 -107 -64 -107 -36 0 -202 26 -225 35 -9 4 -20 17
-23 30 -3 12 5 113 19 224 19 155 29 206 42 221 22 24 11 24 138 5z m318 -45
c9 0 19 -7 21 -17 3 -14 16 -16 86 -14 95 3 112 -6 112 -55 0 -33 -45 -389
-55 -430 -4 -19 -9 -20 -50 -14 -25 4 -48 9 -51 12 -3 3 7 92 21 198 14 106
24 194 22 196 -2 3 -23 2 -47 -2 -52 -8 -54 -13 -75 -179 -27 -218 -19 -198
-71 -192 -25 2 -48 8 -51 11 -6 6 39 394 54 469 5 26 9 28 36 23 16 -3 38 -6
48 -6z"/>
<path d="M11630 7325 l0 -55 50 0 50 0 0 55 0 55 -50 0 -50 0 0 -55z"/>
<path d="M10867 7363 c-4 -3 -7 -28 -7 -55 l0 -48 50 0 50 0 0 55 0 55 -43 0
c-24 0 -47 -3 -50 -7z"/>
<path d="M12802 7318 l3 -53 48 -3 47 -3 0 55 0 56 -51 0 -50 0 3 -52z"/>
<path d="M13635 7196 c-4 -80 -4 -149 0 -155 7 -12 81 -15 88 -3 3 4 8 73 12
155 l7 147 -50 0 -50 0 -7 -144z"/>
<path d="M9133 7149 c4 -77 9 -145 12 -150 4 -5 26 -9 51 -9 l45 0 -7 138 c-7
152 -11 162 -72 162 l-35 0 6 -141z"/>
<path d="M15645 7215 c-5 -2 -22 -6 -36 -9 -26 -6 -27 -8 -33 -113 -4 -60 -10
-123 -13 -140 l-5 -33 46 0 c59 0 61 6 71 173 7 130 6 134 -30 122z"/>
<path d="M7813 7193 c-20 -4 -23 -11 -23 -54 l0 -49 48 0 c27 0 51 2 53 4 2 2
2 27 1 55 -4 55 -9 57 -79 44z"/>
<path d="M15977 7153 c-4 -21 -9 -91 -13 -156 l-7 -118 49 3 49 3 11 145 c7
80 10 148 7 153 -2 4 -24 7 -47 7 -42 0 -44 -1 -49 -37z"/>
<path d="M7412 7151 c-10 -6 -12 -21 -7 -56 l8 -47 44 5 c24 2 46 7 49 9 2 3
1 26 -2 51 -7 46 -7 47 -43 47 -20 0 -42 -4 -49 -9z"/>
<path d="M16896 7084 c-3 -9 -6 -30 -6 -49 0 -35 15 -45 71 -45 25 0 27 4 31
48 2 26 -1 50 -6 54 -21 14 -84 9 -90 -8z"/>
<path d="M6432 7038 c-15 -18 13 -267 32 -286 9 -9 25 -11 50 -7 42 8 40 -1
22 163 -7 62 -17 117 -22 122 -18 18 -69 23 -82 8z"/>
<path d="M18246 6915 c-3 -9 -6 -32 -6 -51 0 -27 5 -35 24 -40 53 -13 71 -2
77 46 4 25 6 46 5 47 0 0 -22 4 -47 8 -38 6 -47 4 -53 -10z"/>
<path d="M2785 6854 c-362 -19 -892 -68 -1275 -119 -168 -23 -283 -39 -617
-91 -62 -10 -113 -21 -113 -24 0 -4 322 -130 715 -281 393 -151 714 -278 714
-284 0 -5 -171 -170 -380 -365 -208 -195 -378 -359 -379 -363 0 -5 8 -6 18 -3
25 8 473 82 657 108 143 21 196 23 490 22 392 -1 554 -11 1810 -106 112 -9
366 -13 740 -13 586 1 941 17 1335 61 242 26 567 89 593 114 17 15 -337 61
-703 91 -74 6 -362 14 -640 19 -430 6 -514 10 -564 25 -149 42 -256 127 -340
270 -26 44 -139 265 -253 490 -113 226 -210 413 -215 416 -10 6 -214 25 -428
39 -199 13 -873 10 -1165 -6z"/>
<path d="M20630 6860 c-191 -10 -315 -21 -326 -28 -6 -4 -82 -147 -171 -317
-208 -401 -327 -617 -375 -682 -38 -52 -115 -116 -174 -146 -17 -9 -65 -26
-105 -38 -70 -21 -102 -22 -589 -29 -578 -9 -870 -29 -1254 -85 -55 -8 -102
-15 -105 -15 -3 0 -1 -4 5 -9 23 -22 341 -86 549 -110 416 -49 780 -66 1390
-66 598 0 554 -2 1360 60 839 64 1379 78 1665 42 270 -34 594 -78 719 -98 68
-11 126 -18 128 -16 2 3 -170 168 -382 368 -211 200 -381 366 -377 370 5 5
1320 513 1405 542 20 7 23 27 4 27 -7 0 -125 18 -262 40 -334 52 -664 94 -985
125 -146 14 -332 32 -415 41 -236 25 -1375 41 -1705 24z"/>
<path d="M6620 5994 c-421 -56 -803 -123 -824 -144 -5 -5 70 -9 198 -10 289
-1 821 -40 1034 -75 18 -4 32 -2 32 4 0 6 -39 64 -86 131 l-87 120 -46 -1
c-25 -1 -125 -12 -221 -25z"/>
<path d="M17714 5963 c-9 -15 -44 -68 -76 -117 -33 -48 -57 -90 -55 -93 3 -2
58 3 123 11 312 39 688 66 927 66 269 0 249 11 -118 64 -140 21 -499 65 -732
91 -49 6 -53 5 -69 -22z"/>
<path d="M3292 4253 l3 -718 100 0 100 0 0 428 c0 271 4 426 10 424 5 -2 20
-30 32 -63 33 -85 209 -549 257 -679 l41 -110 93 -3 92 -3 0 721 0 720 -100 0
-100 0 0 -420 c0 -231 -4 -420 -8 -420 -5 0 -39 80 -77 178 -37 97 -96 249
-130 337 -35 88 -77 197 -95 243 l-31 82 -95 0 -94 0 2 -717z"/>
<path d="M5368 4718 l-3 -253 -160 -6 c-123 -4 -168 -9 -192 -22 -66 -35 -64
-25 -61 -443 3 -361 4 -381 24 -414 33 -58 56 -63 186 -45 200 29 197 29 204
11 5 -13 23 -16 105 -16 l99 0 0 720 0 720 -100 0 -100 0 -2 -252z m-10 -719
l2 -287 -22 -6 c-13 -3 -51 -6 -85 -6 -97 0 -93 -12 -93 295 0 313 -6 298 120
293 l75 -3 3 -286z"/>
<path d="M7629 4944 c-24 -25 -24 -30 -27 -223 -4 -252 -1 -267 83 -346 36
-33 141 -132 234 -220 l171 -160 -3 -145 -2 -145 -135 0 -135 0 -3 148 -3 148
-102 -3 -102 -3 -3 -178 c-1 -103 2 -195 8 -217 18 -68 30 -70 339 -70 182 0
278 4 295 11 49 23 58 73 54 300 -2 171 -6 209 -20 236 -10 17 -119 127 -243
244 l-225 212 0 134 0 133 140 0 140 0 0 -135 0 -135 106 0 106 0 -4 189 c-3
174 -5 192 -24 218 l-21 28 -300 3 -299 2 -25 -26z"/>
<path d="M13750 4250 l0 -720 105 0 105 0 0 380 0 380 100 0 100 0 0 -380 0
-380 105 0 106 0 -3 441 -3 441 -28 24 c-34 29 -90 31 -242 9 -55 -8 -108 -15
-117 -15 -17 0 -18 19 -18 270 l0 270 -105 0 -105 0 0 -720z"/>
<path d="M15339 4951 l-24 -19 0 -677 0 -677 28 -24 28 -24 282 0 c155 0 292
3 304 6 47 13 52 37 53 261 l2 208 -101 3 -101 3 0 -150 c0 -126 -2 -150 -16
-155 -9 -3 -71 -6 -139 -6 -91 0 -125 3 -134 14 -8 9 -10 161 -9 547 l3 534
145 0 145 0 3 -143 3 -143 100 3 101 3 -1 205 -1 205 -26 23 c-25 22 -28 22
-323 22 -279 0 -300 -1 -322 -19z"/>
<path d="M16960 4250 l0 -720 100 0 100 0 0 720 0 720 -100 0 -100 0 0 -720z"/>
<path d="M17340 4250 l0 -720 100 0 100 0 0 720 0 720 -100 0 -100 0 0 -720z"/>
<path d="M21245 4944 c-24 -26 -25 -29 -27 -253 l-3 -226 -47 -3 -48 -3 0 -84
0 -84 48 -3 47 -3 3 -377 2 -378 100 0 100 0 2 378 3 377 68 3 67 3 0 84 0 85
-70 0 -70 0 0 170 0 170 80 0 80 0 0 85 0 85 -155 0 c-155 0 -156 0 -180 -26z"/>
<path d="M14540 4710 l0 -100 100 0 100 0 0 100 0 100 -100 0 -100 0 0 -100z"/>
<path d="M13285 4708 c-3 -7 -6 -65 -7 -128 l-3 -115 -47 -3 -48 -3 0 -84 0
-84 48 -3 47 -3 5 -352 c6 -437 -14 -397 201 -401 l150 -3 -3 83 -3 83 -73 3
-72 3 2 292 3 292 68 3 67 3 0 84 0 84 -67 3 -68 3 -3 128 -3 127 -95 0 c-67
0 -96 -4 -99 -12z"/>
<path d="M4252 4450 c-36 -15 -52 -68 -52 -175 l0 -95 93 0 92 0 0 62 0 63
108 3 107 3 0 -111 0 -110 -160 0 c-196 0 -223 -8 -240 -71 -7 -26 -10 -113
-8 -240 3 -193 4 -198 27 -223 21 -22 33 -26 82 -26 32 0 93 5 136 12 106 16
159 16 156 1 -2 -10 22 -13 97 -13 l101 0 -3 440 -3 439 -23 23 c-22 22 -28
23 -255 25 -129 1 -242 -2 -255 -7z m343 -630 l0 -125 -102 -3 -103 -3 0 131
0 131 103 -3 102 -3 0 -125z"/>
<path d="M5769 4431 c-29 -29 -29 -31 -29 -140 l0 -111 90 0 90 0 0 65 0 65
105 0 105 0 0 -110 0 -110 -155 0 c-175 0 -218 -10 -236 -57 -6 -17 -9 -110
-7 -246 3 -216 3 -219 27 -238 27 -22 104 -25 211 -9 151 24 160 24 160 6 0
-14 14 -16 100 -16 l100 0 0 421 c0 458 -2 473 -56 498 -16 7 -103 11 -250 11
l-226 0 -29 -29z m361 -611 l0 -130 -105 0 -105 0 0 123 c0 68 3 127 7 130 3
4 51 7 105 7 l98 0 0 -130z"/>
<path d="M6490 3995 l0 -465 100 0 100 0 2 378 3 377 88 3 87 3 0 -106 0 -105
100 0 100 0 0 155 c0 91 -4 164 -11 178 -23 50 -96 59 -249 32 -106 -19 -120
-19 -120 0 0 12 -18 15 -100 15 l-100 0 0 -465z"/>
<path d="M8520 4447 c-35 -18 -49 -67 -49 -174 l-1 -93 93 0 92 0 0 62 0 63
108 3 107 3 0 -111 0 -110 -160 0 c-183 0 -224 -10 -237 -57 -4 -15 -8 -123
-8 -240 0 -210 0 -212 24 -237 21 -23 33 -26 89 -26 35 0 112 8 169 17 99 16
106 16 118 0 10 -14 29 -17 104 -17 l91 0 0 434 0 435 -24 28 -24 28 -234 3
c-175 2 -239 -1 -258 -11z m343 -514 c3 -10 4 -67 3 -128 l-1 -110 -102 -3
-103 -3 0 131 0 130 99 0 c87 0 100 -2 104 -17z"/>
<path d="M9230 4458 c0 -2 0 -210 -1 -463 l0 -460 100 -3 101 -3 2 378 3 378
85 0 85 0 3 -102 3 -103 99 0 100 0 0 145 c0 155 -10 204 -48 224 -28 15 -111
14 -217 -4 -112 -18 -115 -18 -115 0 0 12 -18 15 -100 15 -55 0 -100 -1 -100
-2z"/>
<path d="M9992 4450 c-36 -15 -52 -68 -52 -175 l0 -95 95 0 95 0 0 65 0 65
105 0 105 0 0 -110 0 -110 -159 0 c-87 0 -172 -5 -188 -10 -54 -19 -58 -41
-58 -281 0 -216 0 -218 24 -243 21 -22 33 -26 85 -26 34 0 106 7 160 15 123
19 136 19 136 0 0 -12 17 -15 95 -15 l96 0 -3 440 -3 439 -23 23 c-22 22 -28
23 -255 25 -129 1 -242 -2 -255 -7z m343 -630 l0 -125 -102 -3 -103 -3 0 124
c0 68 3 127 7 131 4 4 50 5 103 4 l95 -3 0 -125z"/>
<path d="M10745 4446 c-47 -20 -55 -51 -55 -202 0 -101 4 -142 15 -164 11 -21
64 -59 195 -136 l180 -107 0 -78 0 -79 -95 0 c-69 0 -95 3 -96 13 0 6 -1 41
-2 77 l-2 65 -97 3 -98 3 0 -116 c0 -128 12 -169 56 -185 14 -6 122 -10 240
-10 224 0 263 6 278 45 3 9 6 90 6 180 0 141 -2 166 -18 185 -9 12 -88 63
-175 113 -86 51 -165 99 -174 107 -15 13 -17 28 -15 83 l4 67 94 0 94 0 0 -70
0 -70 101 0 102 0 -5 115 c-4 110 -6 117 -31 143 l-27 27 -223 2 c-169 2 -229
0 -252 -11z"/>
<path d="M11395 4433 c4 -16 17 -77 30 -138 28 -139 156 -736 161 -752 2 -9
30 -13 93 -13 l89 0 7 43 c16 99 85 441 90 445 13 13 24 -26 59 -213 21 -110
42 -217 47 -237 l10 -38 89 0 88 0 7 43 c4 23 15 78 25 122 11 44 42 186 70
315 27 129 59 274 70 322 32 137 36 129 -72 126 l-93 -3 -11 -60 c-6 -33 -23
-132 -38 -220 -43 -251 -50 -286 -61 -288 -5 -1 -16 34 -22 78 -12 76 -33 200
-69 403 l-16 93 -76 -3 -77 -3 -32 -185 c-17 -102 -37 -221 -43 -265 -11 -80
-26 -132 -36 -123 -4 5 -40 206 -80 443 -25 151 -10 135 -120 135 l-96 0 7
-27z"/>
<path d="M12524 4448 c-34 -16 -44 -52 -44 -163 l0 -105 90 0 90 0 0 65 0 65
105 0 105 0 0 -110 0 -110 -160 0 c-170 0 -208 -8 -230 -49 -6 -12 -10 -108
-10 -239 0 -207 1 -221 21 -246 18 -23 27 -26 87 -26 37 0 96 5 132 10 151 24
160 24 160 6 0 -14 14 -16 95 -16 l95 0 0 438 c-1 471 0 461 -54 482 -36 13
-454 12 -482 -2z m344 -625 l-3 -128 -95 -7 c-52 -3 -98 -4 -102 -2 -5 3 -8
63 -8 135 l0 129 105 0 106 0 -3 -127z"/>
<path d="M14540 3995 l0 -465 100 0 100 0 0 465 0 465 -100 0 -100 0 0 -465z"/>
<path d="M16245 4451 c-11 -5 -29 -19 -40 -31 -19 -21 -20 -36 -20 -420 0
-427 1 -436 52 -459 33 -15 473 -15 507 0 52 24 56 56 56 457 0 329 -2 371
-18 402 -28 57 -43 60 -292 59 -124 0 -234 -4 -245 -8z m345 -456 l0 -295
-100 0 -100 0 0 295 0 295 100 0 100 0 0 -295z"/>
<path d="M17754 4446 c-17 -8 -35 -22 -40 -32 -14 -30 -18 -740 -4 -802 18
-82 25 -84 305 -80 296 4 279 -7 283 173 l4 125 -96 0 -95 0 -3 -77 -3 -78
-100 0 -100 0 -3 138 -3 137 174 0 173 0 28 29 27 28 -3 201 c-4 270 22 246
-281 249 -179 2 -239 0 -263 -11z m346 -251 l0 -116 -97 3 -98 3 -3 113 -3
112 101 0 100 0 0 -115z"/>
<path d="M18545 4444 c-16 -9 -39 -28 -50 -42 -19 -26 -20 -43 -20 -399 l0
-372 34 -35 c48 -49 83 -58 235 -60 l131 -1 0 -100 0 -100 -100 0 -100 0 -3
55 -3 55 -94 -3 -95 -3 0 -92 c0 -91 10 -126 44 -149 6 -4 120 -8 253 -8 241
0 242 0 270 24 l28 24 3 611 2 611 -100 0 c-82 0 -100 -3 -100 -15 0 -18 -12
-18 -125 0 -112 19 -171 18 -210 -1z m288 -160 l37 -7 0 -288 0 -289 -80 0
c-125 0 -120 -13 -120 293 0 295 1 297 78 297 26 0 64 -3 85 -6z"/>
<path d="M19293 4448 c-50 -25 -53 -47 -53 -451 0 -248 4 -385 11 -406 20 -56
42 -61 298 -61 229 0 230 0 258 24 27 24 28 27 32 150 l3 126 -96 0 -95 0 -3
-77 -3 -78 -100 0 -100 0 -3 138 -3 137 174 0 173 0 28 29 28 29 -4 201 c-4
269 23 245 -286 248 -155 1 -245 -2 -259 -9z m347 -253 l0 -116 -97 3 -98 3
-3 113 -3 112 101 0 100 0 0 -115z"/>
<path d="M20453 4450 c-54 -22 -54 -24 -51 -465 l3 -407 28 -24 c28 -24 29
-24 265 -24 263 0 279 4 299 60 16 46 18 748 2 803 -17 62 -41 67 -301 66
-123 0 -233 -4 -245 -9z m352 -455 l0 -290 -102 -3 -103 -3 0 289 c0 159 3
292 7 296 4 4 50 5 103 4 l95 -3 0 -290z"/>
<path d="M4377 2913 c-4 -3 -7 -330 -7 -725 l0 -718 300 0 300 0 0 90 0 90
-192 2 -193 3 0 230 0 230 163 3 162 2 0 90 0 90 -162 2 -163 3 -3 213 -2 212
190 0 191 0 -3 93 -3 92 -286 3 c-157 1 -288 -1 -292 -5z"/>
<path d="M12454 2905 c-20 -9 -36 -26 -43 -46 -15 -42 -15 -475 0 -517 6 -18
33 -47 65 -72 30 -22 54 -44 54 -48 0 -4 -25 -25 -55 -46 -33 -23 -58 -51 -65
-69 -11 -32 -14 -545 -4 -585 13 -48 39 -52 373 -52 l311 0 2 333 3 332 48 3
47 3 0 85 0 84 -241 0 -240 0 -47 32 c-26 17 -50 36 -54 42 -5 6 -7 88 -5 181
l2 170 143 3 142 3 0 -126 0 -125 105 0 105 0 -1 163 c-1 276 11 267 -354 266
-197 0 -268 -4 -291 -14z m424 -1017 l-3 -243 -135 0 -135 0 -3 206 -2 207 47
35 c47 35 51 36 141 36 l92 1 -2 -242z"/>
<path d="M13667 2913 c-4 -3 -7 -46 -7 -95 l0 -88 120 0 120 0 0 -630 0 -630
100 0 100 0 0 630 0 630 120 0 120 0 0 95 0 95 -333 0 c-184 0 -337 -3 -340
-7z"/>
<path d="M15980 2915 c0 -3 0 -328 0 -722 l0 -718 100 -3 100 -3 0 375 0 374
63 7 c34 4 80 5 102 3 l40 -3 3 -377 2 -378 100 0 100 0 0 436 0 436 -29 29
c-25 25 -37 29 -83 29 -29 0 -98 -7 -152 -15 -55 -8 -110 -15 -122 -15 l-24 0
-2 273 -3 272 -97 3 c-54 1 -98 0 -98 -3z"/>
<path d="M18315 2908 c-3 -7 -4 -332 -3 -723 l3 -710 98 -3 97 -3 0 726 0 725
-95 0 c-67 0 -97 -4 -100 -12z"/>
<path d="M6680 2645 l0 -105 100 0 100 0 0 105 0 105 -100 0 -100 0 0 -105z"/>
<path d="M10070 2645 l0 -105 100 0 100 0 0 105 0 105 -100 0 -100 0 0 -105z"/>
<path d="M5120 1935 l0 -465 100 0 100 0 2 377 3 376 103 4 102 4 0 -380 0
-381 100 0 100 0 0 436 c0 259 -4 443 -10 453 -24 45 -126 51 -319 17 -69 -12
-74 -12 -79 6 -4 16 -16 18 -103 18 l-99 0 0 -465z"/>
<path d="M5981 2382 c-45 -22 -71 -59 -82 -113 -4 -24 -8 -170 -8 -324 0 -296
5 -351 36 -393 46 -61 62 -67 226 -72 l152 -5 0 -100 0 -100 -100 0 -100 0 -3
53 -3 52 -95 0 -94 0 0 -90 c0 -95 14 -142 45 -154 22 -8 488 -8 510 0 44 17
45 29 45 664 l0 600 -100 0 c-82 0 -100 -3 -100 -15 0 -18 -12 -18 -125 0
-117 19 -162 19 -204 -3z m273 -158 l46 -7 0 -288 0 -289 -80 0 c-125 0 -120
-13 -120 295 0 242 1 256 20 275 21 21 54 25 134 14z"/>
<path d="M6680 1935 l0 -465 100 0 100 0 0 465 0 465 -100 0 -100 0 0 -465z"/>
<path d="M7050 1935 l0 -465 100 0 100 0 2 377 3 376 103 4 102 4 0 -380 0
-381 100 0 100 0 0 440 0 441 -27 26 c-27 25 -30 25 -128 19 -55 -4 -133 -12
-174 -20 -69 -12 -74 -12 -79 6 -4 16 -16 18 -103 18 l-99 0 0 -465z"/>
<path d="M7884 2390 c-54 -22 -54 -22 -54 -458 l0 -404 29 -29 29 -29 231 0
c147 0 239 4 254 11 38 17 47 51 47 174 l0 115 -95 0 -94 0 -3 -77 -3 -78
-100 0 -100 0 -3 138 -3 137 179 0 c239 0 222 -19 222 248 0 198 0 201 -24
229 l-24 28 -234 2 c-128 1 -243 -2 -254 -7z m341 -255 l0 -110 -100 0 -100 0
-3 99 c-1 55 0 106 2 113 4 11 28 13 103 11 l98 -3 0 -110z"/>
<path d="M8639 2385 c-48 -26 -50 -42 -47 -469 l3 -398 28 -24 c28 -24 29 -24
258 -24 252 0 278 5 296 57 6 15 10 76 11 136 l1 107 -99 0 -99 0 -3 -77 -3
-78 -100 0 -100 0 0 135 0 135 177 3 177 2 23 28 c22 27 23 34 23 212 -1 209
-8 242 -57 259 -49 17 -457 14 -489 -4z m351 -250 l0 -116 -101 3 -102 3 1
110 c1 61 2 111 2 113 0 1 45 2 100 2 l100 0 0 -115z"/>
<path d="M9350 1935 l0 -465 100 0 100 0 0 374 0 373 46 7 c26 3 66 6 90 6
l44 0 0 -105 0 -105 105 0 105 0 0 140 c0 242 -28 266 -260 225 -108 -19 -130
-19 -130 0 0 12 -18 15 -100 15 l-100 0 0 -465z"/>
<path d="M10070 1935 l0 -465 100 0 100 0 0 465 0 465 -100 0 -100 0 0 -465z"/>
<path d="M10440 1935 l0 -465 100 0 100 0 2 377 3 376 103 4 102 4 0 -380 0
-381 100 0 100 0 0 429 c0 236 -4 441 -9 454 -15 38 -59 51 -159 43 -48 -4
-109 -11 -137 -16 -76 -14 -105 -12 -105 5 0 12 -18 15 -100 15 l-100 0 0
-465z"/>
<path d="M11310 2389 c-41 -16 -68 -49 -85 -100 -14 -40 -16 -96 -13 -366 3
-313 3 -319 26 -359 40 -69 66 -78 237 -84 l150 -5 3 -102 3 -103 -101 0 -100
0 0 55 0 55 -100 0 -100 0 0 -84 c0 -94 11 -136 41 -154 15 -9 83 -13 259 -13
253 0 268 3 289 48 8 16 11 219 11 623 l0 600 -100 0 c-82 0 -100 -3 -100 -15
0 -18 -12 -18 -125 0 -103 17 -159 18 -195 4z m312 -177 c5 -5 7 -134 6 -288
l-3 -279 -82 -3 c-128 -4 -123 -17 -123 293 0 247 1 256 21 276 20 20 29 21
97 15 42 -3 80 -10 84 -14z"/>
<path d="M14508 2389 c-55 -21 -58 -41 -58 -452 0 -248 4 -385 11 -406 20 -56
42 -61 298 -61 229 0 230 0 258 24 27 24 28 27 32 150 l3 126 -96 0 -95 0 -3
-77 -3 -78 -100 0 -100 0 -3 138 -3 137 174 0 173 0 27 28 27 28 0 182 c0 209
-8 242 -60 261 -41 14 -443 14 -482 0z m342 -254 l0 -115 -100 0 -100 0 0 115
0 115 100 0 100 0 0 -115z"/>
<path d="M15274 2390 c-54 -22 -54 -23 -54 -450 0 -217 3 -405 6 -418 13 -46
45 -52 294 -52 l232 0 29 29 29 29 0 136 c0 75 0 139 0 144 0 4 -43 8 -95 10
l-95 3 0 -90 c0 -77 -3 -90 -17 -95 -23 -6 -170 -3 -177 5 -3 3 -6 135 -6 295
l-1 289 98 0 98 0 3 -77 3 -78 94 0 95 0 0 134 c0 128 -1 136 -24 163 l-24 28
-234 2 c-128 1 -243 -2 -254 -7z"/>
<path d="M16750 1935 l0 -465 105 0 105 0 2 377 3 378 100 0 100 0 3 -377 2
-378 100 0 100 0 0 430 c0 297 -3 437 -11 454 -18 39 -58 50 -157 42 -48 -3
-120 -12 -161 -20 -69 -12 -74 -12 -79 6 -4 16 -16 18 -108 18 l-104 0 0 -465z"/>
<path d="M17600 2393 c-8 -3 -25 -15 -37 -26 l-23 -20 0 -414 0 -414 26 -24
27 -25 238 0 c253 0 279 4 298 47 7 16 11 152 11 423 l0 399 -24 28 -24 28
-239 2 c-131 1 -245 -1 -253 -4z m338 -460 l2 -293 -100 0 -100 0 0 295 0 296
98 -3 97 -3 3 -292z"/>
<path d="M18729 2385 c-48 -26 -50 -42 -47 -469 l3 -398 28 -24 c28 -24 29
-24 272 -24 243 0 244 0 272 24 l28 24 3 398 c3 438 2 447 -54 470 -48 20
-468 19 -505 -1z m359 -453 l2 -293 -102 3 -103 3 -3 280 c-1 154 0 286 3 293
3 9 29 12 102 10 l98 -3 3 -293z"/>
<path d="M19530 2380 c-19 -10 -44 -33 -55 -52 -19 -31 -20 -51 -20 -383 0
-335 1 -351 21 -385 11 -19 38 -45 60 -57 35 -21 53 -23 181 -23 166 0 156 9
151 -125 l-3 -80 -100 0 -100 0 -3 53 -3 53 -96 -3 -96 -3 -3 -30 c-1 -16 0
-61 3 -99 5 -55 11 -75 29 -93 23 -23 25 -23 272 -23 l249 0 24 26 24 26 3
609 3 609 -97 0 c-79 0 -99 -3 -109 -17 -12 -15 -19 -15 -113 0 -128 21 -178
21 -222 -3z m284 -156 l46 -7 0 -288 0 -289 -80 0 c-126 0 -120 -14 -120 299
0 257 0 260 22 275 24 17 59 20 132 10z"/>
<path d="M20190 2392 c0 -4 22 -95 50 -202 27 -107 80 -313 116 -458 l67 -263
-47 -164 c-25 -90 -46 -167 -46 -170 0 -3 46 -4 102 -3 l103 3 26 105 c23 89
109 426 264 1033 l32 127 -103 0 -103 0 -10 -52 c-6 -29 -33 -161 -59 -292
-27 -132 -53 -241 -59 -243 -13 -5 -14 0 -81 342 l-48 240 -102 3 c-56 1 -102
-1 -102 -6z"/>
</g>
</svg>
